<svg width="48" height="48" viewBox="0 0 48 48" xmlns="http://www.w3.org/2000/svg">
    <defs>
        <linearGradient x1="0%" y1="0%" x2="100%" y2="100%" id="23tasmp5ra">
            <stop stop-color="#F540B7" offset="0%"/>
            <stop stop-color="#783BFE" offset="100%"/>
        </linearGradient>
    </defs>
    <g fill="none" fill-rule="evenodd">
        <path d="M14 0h20c7.732 0 14 6.268 14 14v20c0 7.732-6.268 14-14 14H14C6.268 48 0 41.732 0 34V14C0 6.268 6.268 0 14 0z" fill="#FFF"/>
        <path d="M14.733 30.412a13.527 13.527 0 0 1-5.613-2.326l-1.83 1.83a1 1 0 0 1-1.415 0l-1.791-1.79a1 1 0 0 1 0-1.415l1.83-1.83a13.527 13.527 0 0 1-2.326-5.614H1a1 1 0 0 1-1-1v-2.534a1 1 0 0 1 1-1h2.588A13.527 13.527 0 0 1 5.914 9.12l-1.83-1.83a1 1 0 0 1 0-1.415l1.79-1.791a1 1 0 0 1 1.415 0l1.83 1.83a13.527 13.527 0 0 1 5.614-2.326V1a1 1 0 0 1 1-1h2.534a1 1 0 0 1 1 1v2.588a13.527 13.527 0 0 1 5.613 2.326l1.83-1.83a1 1 0 0 1 1.415 0l1.791 1.79a1 1 0 0 1 0 1.415l-1.83 1.83a13.527 13.527 0 0 1 2.326 5.614H33a1 1 0 0 1 1 1v2.534a1 1 0 0 1-1 1h-2.588a13.527 13.527 0 0 1-2.326 5.613l1.83 1.83a1 1 0 0 1 0 1.415l-1.79 1.791a1 1 0 0 1-1.415 0l-1.83-1.83a13.527 13.527 0 0 1-5.614 2.326V33a1 1 0 0 1-1 1h-2.534a1 1 0 0 1-1-1v-2.588zM17 27.2c5.633 0 10.2-4.567 10.2-10.2 0-5.633-4.567-10.2-10.2-10.2-5.633 0-10.2 4.567-10.2 10.2 0 5.633 4.567 10.2 10.2 10.2zm0-2.267a7.933 7.933 0 1 1 0-15.866 7.933 7.933 0 0 1 0 15.866zm0-3.4a4.533 4.533 0 1 0 0-9.066 4.533 4.533 0 0 0 0 9.066z" transform="translate(7 7)" fill="url(#23tasmp5ra)" fill-rule="nonzero"/>
    </g>
</svg>
