<svg width="48" height="48" viewBox="0 0 48 48" xmlns="http://www.w3.org/2000/svg">
    <defs>
        <linearGradient x1="0%" y1="0%" x2="100%" y2="100%" id="9sc952kp2a">
            <stop stop-color="#0CE6A2" offset="0%"/>
            <stop stop-color="#3C34EF" offset="100%"/>
        </linearGradient>
        <linearGradient x1="1.035%" y1="1.035%" x2="100%" y2="100%" id="nyu0g1btmb">
            <stop stop-color="#969696" offset="0%"/>
            <stop stop-color="#747474" offset="100%"/>
        </linearGradient>
        <linearGradient x1="0%" y1="0%" x2="100%" y2="100%" id="vdcffmpzyc">
            <stop stop-color="#5FEF34" offset="0%"/>
            <stop stop-color="#048820" offset="100%"/>
        </linearGradient>
        <linearGradient x1="0%" y1="0%" x2="100%" y2="100%" id="cq2u81u6ld">
            <stop stop-color="#FFA919" offset="0%"/>
            <stop stop-color="#EE006B" offset="100%"/>
        </linearGradient>
    </defs>
    <g fill="none" fill-rule="evenodd">
        <path d="M14 0h20c7.732 0 14 6.268 14 14v20c0 7.732-6.268 14-14 14H14C6.268 48 0 41.732 0 34V14C0 6.268 6.268 0 14 0z" fill="#FFF"/>
        <path d="M8 8h14v2H8V8zm0 4h14v2H8v-2zm0 4h14v2H8v-2zm0 4h10v2H8v-2z" fill="url(#9sc952kp2a)"/>
        <path d="M26 26h2v2h-2v-2zm4 0h10v2H30v-2zm-4 4h2v2h-2v-2zm4 0h10v2H30v-2zm-4 4h2v2h-2v-2zm4 0h10v2H30v-2zm-4 4h2v2h-2v-2zm4 0h10v2H30v-2z" fill="url(#nyu0g1btmb)"/>
        <path d="M26 8h6v6h-6V8zm0 8h6v6h-6v-6zm8-8h6v6h-6V8zm0 8h6v6h-6v-6z" fill="url(#vdcffmpzyc)"/>
        <path d="M14 26.07V34h7.93A7.002 7.002 0 0 1 8 33a7.002 7.002 0 0 1 6-6.93zm2 0A7.005 7.005 0 0 1 21.93 32H16v-5.93z" fill="url(#cq2u81u6ld)"/>
    </g>
</svg>
