<svg width="48" height="48" viewBox="0 0 48 48" xmlns="http://www.w3.org/2000/svg">
    <defs>
        <linearGradient x1="0%" y1="0%" x2="100%" y2="100%" id="1iijjolpqa">
            <stop stop-color="#6B6B6B" offset="0%"/>
            <stop offset="100%"/>
        </linearGradient>
        <linearGradient x1="0%" y1="0%" x2="100%" y2="100%" id="7qxectf45b">
            <stop stop-color="#F4F4F4" offset="0%"/>
            <stop stop-color="#CACACA" offset="100%"/>
        </linearGradient>
    </defs>
    <g fill="none" fill-rule="evenodd">
        <g>
            <path d="M14 0h20c7.732 0 14 6.268 14 14v20c0 7.732-6.268 14-14 14H14C6.268 48 0 41.732 0 34V14C0 6.268 6.268 0 14 0z" fill="#FFF"/>
            <circle fill="url(#1iijjolpqa)" cx="24" cy="24" r="17"/>
            <circle fill="url(#7qxectf45b)" cx="24" cy="24" r="13"/>
            <path d="M24 13a1 1 0 0 1 1 1v4a1 1 0 0 1-2 0v-4a1 1 0 0 1 1-1z" fill="#D0021B"/>
            <path d="M24 8a1 1 0 1 1 0 2 1 1 0 0 1 0-2zm0 30a1 1 0 1 1 0 2 1 1 0 0 1 0-2zM9 23a1 1 0 1 1 0 2 1 1 0 0 1 0-2zm30 0a1 1 0 1 1 0 2 1 1 0 0 1 0-2zm-7-12.856a1 1 0 1 1-1 1.732 1 1 0 0 1 1-1.732zm-15 25.98a1 1 0 1 1-1 1.732 1 1 0 0 1 1-1.732zm-5.49-20.49a1 1 0 1 1-1 1.732 1 1 0 0 1 1-1.732zm25.98 15a1 1 0 1 1-1 1.732 1 1 0 0 1 1-1.732zM37.856 16a1 1 0 1 1-1.732 1 1 1 0 0 1 1.732-1zm-25.98 15a1 1 0 1 1-1.732 1 1 1 0 0 1 1.732-1zm5.49-20.49a1 1 0 1 1-1.732 1 1 1 0 0 1 1.732-1zm15 25.98a1 1 0 1 1-1.732 1 1 1 0 0 1 1.732-1z" fill="#FFF"/>
        </g>
        <path fill="#D0021B" d="m24 6 2-3h-4z"/>
    </g>
</svg>
