<svg width="48" height="48" viewBox="0 0 48 48" xmlns="http://www.w3.org/2000/svg">
    <defs>
        <linearGradient x1="23.92%" y1="0%" x2="76.08%" y2="100%" id="c1a1gu6fha">
            <stop stop-color="#C6C6C6" offset="1.035%"/>
            <stop stop-color="#969696" offset="100%"/>
        </linearGradient>
        <linearGradient x1="24.46%" y1="1.035%" x2="76.08%" y2="100%" id="mkqn2qrd9b">
            <stop stop-color="#969696" offset="0%"/>
            <stop stop-color="#747474" offset="100%"/>
        </linearGradient>
    </defs>
    <g fill="none" fill-rule="evenodd">
        <path d="M14 0h20c7.732 0 14 6.268 14 14v20c0 7.732-6.268 14-14 14H14C6.268 48 0 41.732 0 34V14C0 6.268 6.268 0 14 0z" fill="#FFF"/>
        <path d="M17 2h7v2h-7V2zm0 8h7v2h-7v-2zm6-6h7v2h-7V4zm0 8h7v2h-7v-2zm-6-6h7v2h-7V6zm0 8h7v2h-7v-2zm6-6h7v2h-7V8zm0 8h7v2h-7v-2zm-6 2h7v2h-7v-2z" fill="url(#c1a1gu6fha)"/>
        <path d="M27 22a3 3 0 0 1 3 3v12a3 3 0 0 1-3 3h-7a3 3 0 0 1-3-3V25a3 3 0 0 1 3-3h7zm0 13h-7a1 1 0 0 0-1 1v1a1 1 0 0 0 1 1h7a1 1 0 0 0 1-1v-1a1 1 0 0 0-1-1z" fill="url(#mkqn2qrd9b)"/>
    </g>
</svg>
