<svg width="48" height="48" viewBox="0 0 48 48" xmlns="http://www.w3.org/2000/svg">
    <defs>
        <linearGradient x1="0%" y1="0%" x2="100%" y2="100%" id="ubbqv5162a">
            <stop stop-color="#2AC5FC" offset="0%"/>
            <stop stop-color="#3A28EF" offset="100%"/>
        </linearGradient>
    </defs>
    <g fill="none" fill-rule="evenodd">
        <path d="M14 0h20c7.732 0 14 6.268 14 14v20c0 7.732-6.268 14-14 14H14C6.268 48 0 41.732 0 34V14C0 6.268 6.268 0 14 0z" fill="#FFF"/>
        <path d="M12 12h6v6h-6v-6zm0 9h6v6h-6v-6zm0 9h6v6h-6v-6zm9-18h6v6h-6v-6zm0 9h6v6h-6v-6zm0 9h6v6h-6v-6zm9-18h6v6h-6v-6zm0 9h6v6h-6v-6zm0 9h6v6h-6v-6z" fill="url(#ubbqv5162a)"/>
    </g>
</svg>
