<svg width="48" height="48" viewBox="0 0 48 48" xmlns="http://www.w3.org/2000/svg">
    <defs>
        <linearGradient x1="18.962%" y1="0%" x2="81.038%" y2="100%" id="tnosbmiwua">
            <stop stop-color="#F540B7" offset="0%"/>
            <stop stop-color="#783BFE" offset="100%"/>
        </linearGradient>
    </defs>
    <g fill="none" fill-rule="evenodd">
        <path d="M14 0h20c7.732 0 14 6.268 14 14v20c0 7.732-6.268 14-14 14H14C6.268 48 0 41.732 0 34V14C0 6.268 6.268 0 14 0z" fill="#FFF"/>
        <g transform="translate(11 5)">
            <path d="M23 4a3 3 0 0 1 3 3v27a3 3 0 0 1-3 3H3a3 3 0 0 1-3-3V7a3 3 0 0 1 3-3h6v3a2 2 0 0 0 1.85 1.995L11 9h4a2 2 0 0 0 2-2V4h6zM13 24c-6.494 0-10 2.504-10 7.429a1 1 0 1 0 2 0C5 27.78 7.494 26 13 26s8 1.781 8 5.429a1 1 0 1 0 2 0C23 26.504 19.494 24 13 24zm0-12a5 5 0 1 0 0 10 5 5 0 0 0 0-10zm0 2a3 3 0 1 1 0 6 3 3 0 0 1 0-6z" fill="url(#tnosbmiwua)" fill-rule="nonzero"/>
            <rect fill="#9013FE" x="11" width="4" height="7" rx="1"/>
        </g>
    </g>
</svg>
