<svg width="48" height="48" viewBox="0 0 48 48" xmlns="http://www.w3.org/2000/svg">
    <defs>
        <linearGradient x1="0%" y1="0%" x2="100%" y2="100%" id="arikh6q6qa">
            <stop stop-color="#31D3FA" offset="0%"/>
            <stop stop-color="#3222FB" offset="100%"/>
        </linearGradient>
        <linearGradient x1="21.22%" y1="1.035%" x2="79.389%" y2="100%" id="lvk8wi1tfb">
            <stop stop-color="#B6B6B6" offset="0%"/>
            <stop stop-color="gray" offset="100%"/>
        </linearGradient>
        <linearGradient x1="0%" y1="0%" x2="100%" y2="100%" id="c6lnf11lrc">
            <stop stop-color="#2AC5FC" offset="0%"/>
            <stop stop-color="#3A28EF" offset="100%"/>
        </linearGradient>
    </defs>
    <g fill="none" fill-rule="evenodd">
        <path d="M14 0h20c7.732 0 14 6.268 14 14v20c0 7.732-6.268 14-14 14H14C6.268 48 0 41.732 0 34V14C0 6.268 6.268 0 14 0z" fill="#FFF"/>
        <path d="M39.929 39.371A.997.997 0 0 0 40 39c0-3.972-2.84-6-8-6s-8 2.028-8 6c0 .131.025.256.071.371A7.97 7.97 0 0 1 22 34v-4a8 8 0 0 1 8-8h4a8 8 0 0 1 8 8v4a7.97 7.97 0 0 1-2.071 5.371zm-.558.558A7.97 7.97 0 0 1 34 42h-4a7.97 7.97 0 0 1-5.371-2.071A1 1 0 0 0 26 39c0-2.695 1.827-4 6-4s6 1.305 6 4a1 1 0 0 0 1.371.929zM32 32a4 4 0 1 0 0-8 4 4 0 0 0 0 8zm0-2a2 2 0 1 1 0-4 2 2 0 0 1 0 4z" fill="url(#arikh6q6qa)"/>
        <path d="M5 37a1 1 0 0 1 1-1h2V16a1 1 0 0 1 1-1h7a1 1 0 0 1 1 1v20h2V9a1 1 0 0 1 1-1h7a1 1 0 0 1 1 1v14a1 1 0 0 1-1 1 5 5 0 0 0-5 5v8c0 .342.034.677.1 1H6a1 1 0 0 1-1-1z" fill="url(#lvk8wi1tfb)"/>
        <path d="M34.667 20h-5.334A9.333 9.333 0 0 0 20 29.333v5.334A9.333 9.333 0 0 0 29.333 44h5.334A9.333 9.333 0 0 0 44 34.667v-5.334A9.333 9.333 0 0 0 34.667 20z" fill="#FFF"/>
        <path d="M34.222 22h-4.444A7.778 7.778 0 0 0 22 29.778v4.444A7.778 7.778 0 0 0 29.778 42h4.444A7.778 7.778 0 0 0 42 34.222v-4.444A7.778 7.778 0 0 0 34.222 22z" fill="url(#c6lnf11lrc)"/>
        <path d="M32 30.5a2 2 0 1 0 0-4 2 2 0 0 0 0 4zm0 1.5a3.5 3.5 0 1 1 0-7 3.5 3.5 0 0 1 0 7zm-5.6 6.288a.706.706 0 0 1-.7.712.706.706 0 0 1-.7-.712C25 34.783 27.454 33 32 33c4.546 0 7 1.783 7 5.288a.706.706 0 0 1-.7.712.706.706 0 0 1-.7-.712c0-2.596-1.746-3.864-5.6-3.864-3.854 0-5.6 1.268-5.6 3.864z" fill="#FFF" fill-rule="nonzero"/>
    </g>
</svg>
