<svg width="48" height="48" viewBox="0 0 48 48" xmlns="http://www.w3.org/2000/svg">
    <defs>
        <linearGradient x1="0%" y1="7.396%" x2="100%" y2="92.604%" id="tborghn56a">
            <stop stop-color="#5FEF34" offset="0%"/>
            <stop stop-color="#048820" offset="100%"/>
        </linearGradient>
    </defs>
    <g fill="none" fill-rule="evenodd">
        <path d="M14 0h20c7.732 0 14 6.268 14 14v20c0 7.732-6.268 14-14 14H14C6.268 48 0 41.732 0 34V14C0 6.268 6.268 0 14 0z" fill="#FFF"/>
        <path d="M1 8h3a1 1 0 0 1 1 1v14a1 1 0 0 1-1 1H1a1 1 0 0 1-1-1V9a1 1 0 0 1 1-1zm7-8h3a1 1 0 0 1 1 1v22a1 1 0 0 1-1 1H8a1 1 0 0 1-1-1V1a1 1 0 0 1 1-1zm7 10h3a1 1 0 0 1 1 1v12a1 1 0 0 1-1 1h-3a1 1 0 0 1-1-1V11a1 1 0 0 1 1-1zm7 7h3a1 1 0 0 1 1 1v5a1 1 0 0 1-1 1h-3a1 1 0 0 1-1-1v-5a1 1 0 0 1 1-1z" transform="translate(11 12)" fill="url(#tborghn56a)"/>
    </g>
</svg>
