<svg width="48" height="48" viewBox="0 0 48 48" xmlns="http://www.w3.org/2000/svg">
    <defs>
        <linearGradient x1="0%" y1="37.5%" x2="100%" y2="62.5%" id="8ko75eroga">
            <stop stop-color="#FFA919" offset="0%"/>
            <stop stop-color="#EE006B" offset="100%"/>
        </linearGradient>
    </defs>
    <g fill="none" fill-rule="evenodd">
        <path d="M14 0h20c7.732 0 14 6.268 14 14v20c0 7.732-6.268 14-14 14H14C6.268 48 0 41.732 0 34V14C0 6.268 6.268 0 14 0z" fill="#FFF"/>
        <path d="M14.5 7.5H18a2.5 2.5 0 1 0 0-5h-3.5v5zm6.807 1.25A4.988 4.988 0 0 1 23 12.5V18H12V0h6a5 5 0 0 1 3.307 8.75zM18 10h-3.5v8h6v-5.5A2.5 2.5 0 0 0 18 10zm9.5-7.5v5H31a2.5 2.5 0 1 0 0-5h-3.5zm0 7.5v8H25V0h6a5 5 0 0 1 0 10h-3.5zm-25-2.5H10V10H2.5v4A1.5 1.5 0 0 0 4 15.5h6v-13H4A1.5 1.5 0 0 0 2.5 4v3.5zM4 0h6v18H4a4 4 0 0 1-4-4V4a4 4 0 0 1 4-4z" transform="translate(7 15)" fill="url(#8ko75eroga)"/>
    </g>
</svg>
