<svg width="48" height="48" viewBox="0 0 48 48" xmlns="http://www.w3.org/2000/svg">
    <defs>
        <radialGradient cx="50%" cy="50%" fx="50%" fy="50%" r="57.409%" id="oj1kar245b">
            <stop stop-color="#D91616" offset="0%"/>
            <stop stop-color="#F63E06" offset="100%"/>
        </radialGradient>
        <linearGradient x1="0%" y1="11.719%" x2="100%" y2="88.281%" id="7e3v3tuwda">
            <stop stop-color="#F9B212" offset="0%"/>
            <stop stop-color="#EB6714" offset="100%"/>
        </linearGradient>
    </defs>
    <g fill="none" fill-rule="evenodd">
        <path d="M14 0h20c7.732 0 14 6.268 14 14v20c0 7.732-6.268 14-14 14H14C6.268 48 0 41.732 0 34V14C0 6.268 6.268 0 14 0z" fill="#FFF"/>
        <path d="M2 10H0V8a8 8 0 0 1 8-8h2v2H8a6 6 0 0 0-6 6v2zm0 8v2a6 6 0 0 0 6 6h2v2H8a8 8 0 0 1-8-8v-2h2zm20 8h2a6 6 0 0 0 6-6v-2h2v2a8 8 0 0 1-8 8h-2v-2zm8-16V8a6 6 0 0 0-6-6h-2V0h2a8 8 0 0 1 8 8v2h-2z" transform="translate(8 10)" fill="url(#7e3v3tuwda)" fill-rule="nonzero"/>
        <path d="M24 32a8 8 0 1 1 0-16 8 8 0 0 1 0 16zm0-3a5 5 0 1 0 0-10 5 5 0 0 0 0 10z" fill="url(#oj1kar245b)"/>
    </g>
</svg>
