<svg xmlns="http://www.w3.org/2000/svg" xmlns:xlink="http://www.w3.org/1999/xlink" width="24" height="24" viewBox="0 0 24 24">
    <defs>
        <path id="prefix__a" d="M8 0h8c4.418 0 8 3.582 8 8v8c0 4.418-3.582 8-8 8H8c-4.418 0-8-3.582-8-8V8c0-4.418 3.582-8 8-8z"/>
    </defs>
    <g fill="none" fill-rule="evenodd">
        <mask id="prefix__b" fill="#fff">
            <use xlink:href="#prefix__a"/>
        </mask>
        <use fill="#BDBDBD" xlink:href="#prefix__a"/>
        <g mask="url(#prefix__b)">
            <g>
                <path fill="#050101" d="M23.544 8.28h-1.76c-.152-.001-.248.042-.216.22.022.12.035.22.207.207.607-.048 1.195-.173 1.769-.427M1.106 14.214c-.64 1.092-.306 7.356.381 8.391l-.381-8.39m4.297 16.533c-.236.011-.433.04-.627.023-.252-.022-.256.096-.217.287.144.722.264 1.45.425 2.168.205.918.33 1.867.894 2.665.048.069.069.2.187.16.086-.03.063-.14.066-.218.026-.704-.062-1.402-.104-2.102-.045-.76-.072-1.519-.035-2.279.012-.236.248-.527.103-.677-.154-.158-.48-.01-.692-.027m11.16 2.896c0 .703-.002 1.406.002 2.108.001.32.108.388.402.272.146-.058.247-.16.319-.3.15-.29.208-.606.27-.924.17-.891.351-1.781.535-2.67.128-.62.265-1.238.403-1.856.05-.22-.032-.254-.21-.16-.33.17-.689.16-1.042.154-.244-.004-.482.026-.722.048-.107.01-.177.034-.139.168.302 1.037.172 2.105.182 3.16m2.486-11.296c.423-.796.628-1.656.79-2.527.12-.648.12-1.307.17-1.962.142-1.928-.143-3.814-.569-5.685-.053-.233-.207-.31-.446-.219-.34.13-.586.456-.605.84-.018.35.063.693.16 1.018.606 2.017.708 4.071.547 6.157-.061.788-.111 1.58-.047 2.378m3.334-5.912c0 .725-.003 1.45.001 2.174.003.426.025.436.385.23.58-.33 1.154-.669 1.739-.988.22-.12.31-.275.313-.522.018-1.162.046-2.324.073-3.486.007-.288.027-.574.039-.862.053-1.322.103-2.644.159-3.966.007-.182-.05-.208-.222-.164-.656.168-1.317.323-1.977.478-.243.057-.57.02-.715.167-.176.18.006.503-.001.765-.062 2.06.086 4.116.206 6.174m-4.557-1.917l-.115.022c0 .621-.015 1.243.003 1.864.05 1.785.145 3.569.163 5.354.014 1.43.06 2.858.103 4.286.031 1.024.137 2.045.133 3.07 0 .145-.006.319.218.191.44-.252.951-.345 1.375-.638.558-.386 1.118-.775 1.753-1.03.254-.101.333-.258.327-.528-.033-1.521-.03-3.043-.057-4.564-.034-1.96-.179-3.915-.167-5.875 0-.137-.025-.275-.03-.413-.028-.898-.071-1.793-.128-2.69-.077-1.227-.037-2.46-.037-3.692 0-.226-.074-.29-.286-.231-1.053.293-2.107.585-3.162.872-.157.043-.238.11-.22.286.035.374.057.749.086 1.144.048-.029.087-.038.1-.062.424-.752 1.152-.846 1.907-.881.284-.014.506.106.71.3.353.336.45.775.48 1.225.034.544.117 1.112-.32 1.567-.077.08-.02.175-.01.264.082.64.131 1.282.148 1.927.028 1.085-.023 2.167-.145 3.243-.128 1.115-.414 2.194-.905 3.21-.071.148-.162.278-.287.386-.236.205-.505.283-.801.17-.314-.119-.406-.386-.415-.694-.028-.992.026-1.983.094-2.971.105-1.514.064-3.016-.234-4.507-.046-.227-.143-.426-.28-.605m-14.92-3.72c-.299 0-.6.014-.897-.005-.253-.017-.326.044-.319.32.058 2.178.22 4.349.352 6.522.092 1.518.135 3.038.208 4.557.118 2.474.297 4.944.547 7.41.037.358.193.485.497.512.287.025.577.033.856-.062.132-.046.264-.07.406-.068.599.009 1.197-.012 1.795-.069.284-.027.37-.127.353-.407-.1-1.574-.18-3.15-.275-4.724-.068-1.127-.16-2.252-.225-3.38-.079-1.367-.133-2.736-.211-4.104-.09-1.588-.224-3.173-.2-4.766.008-.508-.03-1.013-.09-1.518-.029-.247-.136-.306-.379-.31-.808-.013-1.609.143-2.417.091m11.39-.08c-.59 0-1.086.011-1.581-.006-.242-.008-.314.055-.304.308.065 1.624.12 3.248.162 4.873.025.988.045 1.977.033 2.967-.009.726.05 1.47.067 2.203.066 2.742.135 5.484.215 8.226.008.274.083.345.351.348 1.257.015 2.51-.04 3.764-.124.299-.02.356-.11.349-.383-.04-1.439-.072-2.876-.18-4.313-.092-1.205-.075-2.418-.093-3.628-.03-2.05-.183-4.1-.121-6.151.04-1.325.073-2.649-.01-3.974-.02-.322-.083-.445-.432-.413-.768.071-1.541.085-2.22.066m-5.253.012v.009c-.622 0-1.244.003-1.866-.001-.683-.005-.658-.009-.644.648.042 1.887.09 3.774.218 5.658.044.639.055 1.28.086 1.918.043.886.073 1.772.143 2.656.132 1.651.252 3.303.33 4.958.045.943.118 1.884.16 2.827.013.309.124.405.435.39 1.276-.058 2.548-.214 3.828-.17.289.01.39-.089.368-.376-.118-1.564-.078-3.132-.117-4.697-.037-1.472-.085-2.943-.075-4.417.008-1.122.01-2.253-.077-3.38-.094-1.216-.061-2.44-.1-3.66-.022-.702-.082-1.403-.111-2.104-.009-.215-.093-.266-.296-.263-.76.01-1.521.004-2.282.004m2.638-.82l4.064-.001c.429 0 .473-.04.408-.447-.173-1.09-.32-2.183-.577-3.263-.16-.67-.462-1.18-.961-1.616-.339-.296-.647-.637-1.105-.745-2.359-.557-4.745-.814-7.168-.626-.435.034-.867.12-1.3.178-.078.01-.17.03-.217-.06-.049-.092-.01-.18.05-.255.096-.122.232-.19.373-.241.467-.167.947-.279 1.443-.327 2.261-.219 4.485.017 6.694.501 1.213.266 1.94 1.135 2.651 2.035.061.078.087.188.113.288.355 1.361.636 2.738.771 4.139.032.322.155.422.45.363.091-.017.184-.024.273-.047.901-.24 1.8-.486 2.704-.72.202-.051.207-.164.184-.331-.152-1.132-.324-2.26-.69-3.345-.315-.938-.846-1.724-1.616-2.363-1.216-1.008-2.7-1.362-4.165-1.759-1.093-.295-2.22-.409-3.348-.464C8.787.71 6.908.883 5.268 2.06c-.603.433-1.152.935-1.516 1.585-.374.666-.539 1.418-.713 2.157-.3 1.273-.397 2.569-.404 3.875-.001.239.04.306.286.32.786.046 1.565-.067 2.349-.077 2.132-.028 4.264.153 6.413-.01m.648 20.485c-1.269-.018-2.535.03-3.798.15-.39.036-.783.047-1.174.052-.214.003-.339.08-.41.287-.103.296-.191.59-.198.906-.023.993.018 1.981.116 2.97.041.41.036.829.019 1.243-.022.5-.263.817-.648.917-.337.087-.68-.118-.961-.53-.647-.947-.859-2.038-1.074-3.131-.142-.721-.348-1.43-.414-2.165-.023-.244-.121-.277-.36-.259-.316.024-.64-.028-.958-.074-.255-.036-.353-.224-.374-.47-.056-.688-.12-1.375-.182-2.062-.103-1.17-.206-2.338-.312-3.508-.007-.077-.019-.17-.065-.226C.762 23.55.482 22.398.28 21.248c-.446-2.545-.32-5.096.103-7.636.092-.557.22-1.11.513-1.604.065-.11.064-.22.056-.333-.022-.333-.045-.667-.082-.999-.05-.462.076-.664.546-.658.387.006.429-.205.446-.484.014-.23.027-.46.03-.69.024-1.473.282-2.903.701-4.315.374-1.258 1.137-2.178 2.212-2.892C6.007.837 7.327.343 8.735.097 9.831-.095 10.937.04 12.04.144c1.724.163 3.377.61 4.972 1.257 1.279.518 2.32 1.367 3.034 2.57.586.986.818 2.096 1.031 3.205.046.239.122.343.364.34 1.245-.01 2.487.074 3.73.11.552.017.786.233.754.778-.17 2.887-.266 5.778-.341 8.669-.008.274-.071.541-.075.82-.005.314-.307.44-.54.578-.754.444-1.51.885-2.277 1.306-.194.106-.245.223-.241.43.04 2.317.07 4.633.101 6.95.003.173.002.347-.018.518-.038.337-.168.55-.564.618-.526.09-.954.444-1.413.706-.15.086-.283.216-.442.268-.62.198-.792.68-.9 1.254-.305 1.607-.702 3.195-.977 4.809-.05.295-.16.575-.315.837-.25.422-.626.636-1.103.675-.63.05-1.03-.294-1.036-.923-.007-.657.026-1.314.041-1.97.02-.889.007-1.776-.062-2.662-.01-.114-.017-.23-.042-.342-.109-.481-.208-.553-.695-.552-.898.004-1.797.001-2.696.001" transform="translate(1 3)"/>
                <path fill="#E7E6D6" d="M12.532 6.991c.01-.328-.269-.615-.61-.628-.355-.014-.652.258-.665.608-.013.34.25.617.598.63.339.013.666-.282.677-.61m-7.033.63c.407 0 .72-.297.711-.678-.007-.303-.345-.676-.62-.685-.35-.01-.726.418-.723.828.002.31.264.533.632.534m3.166 1.83c.474-.018.948-.017 1.402-.172.23-.08.382-.241.31-.5-.064-.234-.25-.338-.484-.264-.77.247-1.55.16-2.327.069-.287-.034-.517-.03-.585.298-.051.246.164.446.514.481.389.039.78.06 1.17.089m4.53-1.757c-.478-.037-.91.048-1.272.398-.174.166-.222.35-.168.56.049.187.222.246.396.288.57.138 1.142.09 1.703-.033.29-.063.54-.246.512-.6-.024-.313-.254-.463-.523-.568-.213-.083-.433-.025-.648-.045M4.322 9.08c.332-.012.658.044.963-.098.245-.114.433-.283.43-.569-.003-.27-.175-.452-.414-.542-.647-.244-1.294-.281-1.926.06-.443.24-.453.643-.062.955.32.256.674.17 1.009.194m7.361.828c-2.15.164-4.281-.017-6.413.01-.784.01-1.563.124-2.35.078-.246-.014-.286-.081-.285-.32.007-1.306.105-2.602.404-3.875.174-.739.339-1.491.713-2.157.364-.65.913-1.152 1.516-1.585C6.908.883 8.787.71 10.714.803c1.127.055 2.255.169 3.348.464 1.466.397 2.949.751 4.165 1.76.77.638 1.301 1.424 1.617 2.362.365 1.086.537 2.213.69 3.345.022.167.017.28-.185.332-.903.233-1.803.48-2.704.719-.089.023-.182.03-.272.047-.296.059-.42-.041-.45-.363-.136-1.401-.417-2.778-.772-4.139-.026-.1-.052-.21-.113-.288-.712-.9-1.438-1.769-2.65-2.035-2.21-.484-4.434-.72-6.695-.5-.496.047-.976.159-1.443.326-.14.05-.277.119-.373.24-.06.075-.099.164-.05.257.046.09.14.069.216.059.434-.058.866-.144 1.301-.178 2.423-.188 4.81.069 7.168.626.458.108.766.449 1.105.745.5.437.801.946.961 1.616.257 1.08.404 2.173.577 3.263.065.407.02.446-.408.447h-4.064" transform="translate(1 3)"/>
                <path fill="#F6AC00" d="M9.045 10.729c.76 0 1.522.007 2.282-.004.203-.003.287.048.296.263.029.701.09 1.401.111 2.103.039 1.22.006 2.445.1 3.66.087 1.128.085 2.259.077 3.38-.01 1.475.038 2.946.075 4.418.039 1.565-.001 3.134.117 4.697.021.287-.08.386-.368.376-1.28-.044-2.552.112-3.828.17-.31.015-.422-.081-.436-.39-.041-.943-.114-1.884-.159-2.827-.078-1.655-.198-3.307-.33-4.958-.07-.884-.1-1.77-.143-2.656-.031-.639-.042-1.28-.086-1.918-.128-1.884-.176-3.77-.218-5.658-.014-.657-.04-.653.643-.648.623.004 1.245 0 1.867 0v-.008z" transform="translate(1 3)"/>
                <path fill="#FBCC3C" d="M14.297 10.717c.68.019 1.453.006 2.221-.066.35-.032.413.091.433.413.082 1.325.049 2.649.009 3.974-.062 2.052.09 4.1.12 6.151.019 1.21.002 2.423.093 3.628.108 1.437.141 2.874.18 4.313.008.273-.05.363-.347.383-1.254.085-2.508.139-3.765.124-.268-.003-.343-.074-.35-.348-.081-2.742-.15-5.484-.216-8.226-.018-.733-.076-1.477-.067-2.203.012-.99-.008-1.979-.033-2.967-.042-1.625-.097-3.249-.162-4.873-.01-.253.062-.316.304-.308.495.017.991.005 1.58.005M2.908 10.798c.808.052 1.61-.104 2.417-.091.243.004.35.062.38.31.06.505.097 1.01.09 1.518-.025 1.593.108 3.178.199 4.766.078 1.368.132 2.737.211 4.104.065 1.128.157 2.253.225 3.38.096 1.575.176 3.15.275 4.724.017.28-.069.38-.353.407-.598.057-1.196.078-1.795.07-.142-.003-.274.021-.406.066-.279.096-.569.088-.856.063-.304-.027-.46-.154-.497-.513-.25-2.465-.429-4.935-.547-7.409-.073-1.519-.116-3.04-.208-4.557-.131-2.173-.294-4.344-.352-6.521-.007-.277.066-.338.319-.321.298.02.598.004.898.004" transform="translate(1 3)"/>
                <path fill="#F6AC00" d="M17.826 14.519c.138.18.235.378.28.605.299 1.491.34 2.992.235 4.507-.068.988-.122 1.979-.094 2.97.01.31.101.576.415.695.296.113.565.035.801-.17.125-.108.216-.238.287-.385.491-1.017.777-2.096.905-3.211.122-1.076.173-2.158.145-3.243-.017-.645-.066-1.287-.147-1.927-.011-.089-.068-.184.01-.264.436-.455.353-1.023.318-1.567-.028-.45-.126-.89-.48-1.226-.203-.193-.425-.313-.71-.3-.754.036-1.482.13-1.906.883-.013.023-.052.032-.1.06-.029-.394-.05-.769-.087-1.143-.017-.176.064-.243.221-.286 1.055-.287 2.109-.58 3.162-.872.212-.06.286.005.286.231 0 1.231-.04 2.465.037 3.692.057.897.1 1.792.129 2.69.004.138.03.276.029.413-.012 1.96.133 3.916.167 5.875.027 1.521.024 3.043.057 4.564.006.27-.073.427-.327.529-.635.254-1.195.643-1.753 1.03-.424.292-.935.385-1.375.637-.224.128-.218-.046-.218-.19.004-1.026-.102-2.047-.133-3.071-.044-1.428-.089-2.857-.103-4.286-.018-1.785-.113-3.57-.163-5.354-.018-.621-.003-1.243-.003-1.865l.115-.021zM22.383 16.436c-.12-2.058-.268-4.114-.206-6.174.007-.262-.175-.585.001-.765.145-.147.472-.11.715-.167.66-.155 1.32-.31 1.977-.478.171-.044.23-.018.222.163-.056 1.323-.106 2.645-.16 3.967-.01.288-.03.575-.038.862-.027 1.162-.055 2.324-.073 3.487-.003.246-.094.402-.313.521-.585.32-1.16.659-1.74.989-.36.205-.38.195-.384-.23-.004-.725 0-1.45 0-2.175" transform="translate(1 3)"/>
                <path fill="#E3E2D2" d="M19.049 22.348c-.064-.797-.014-1.59.047-2.378.16-2.086.06-4.14-.546-6.157-.098-.325-.179-.668-.161-1.018.019-.384.265-.71.605-.84.239-.092.393-.014.446.22.426 1.87.711 3.756.568 5.684-.048.655-.049 1.314-.17 1.962-.16.87-.366 1.73-.79 2.527M1.106 14.214l.381 8.391c-.687-1.035-1.022-7.3-.381-8.39" transform="translate(1 3)"/>
                <path fill="#EEC036" d="M23.544 8.28c-.574.254-1.162.38-1.77.427-.171.013-.184-.087-.206-.206-.032-.179.064-.222.215-.222.587.002 1.174.001 1.76.001" transform="translate(1 3)"/>
                <path fill="#FBE7C8" d="M4.322 9.08c-.335-.024-.689.062-1.009-.194-.391-.312-.38-.715.062-.954.632-.342 1.28-.305 1.926-.061.24.09.411.273.414.542.003.286-.186.455-.43.569-.305.142-.631.086-.963.098M13.195 7.694c.215.02.435-.038.648.045.27.105.499.255.523.568.027.354-.223.537-.512.6-.56.123-1.133.17-1.703.033-.174-.042-.347-.101-.396-.289-.054-.209-.005-.393.168-.56.363-.349.794-.434 1.272-.397" transform="translate(1 3)"/>
                <path fill="#050101" d="M8.665 9.45c-.39-.028-.781-.049-1.17-.088-.35-.035-.565-.235-.514-.481.068-.329.298-.332.585-.298.777.09 1.557.178 2.327-.069.234-.075.42.03.485.264.071.26-.08.421-.31.5-.455.155-.93.154-1.403.173M5.499 7.62c-.368-.001-.63-.223-.632-.534-.002-.41.373-.839.723-.828.275.009.613.382.62.685.009.38-.304.679-.711.677M12.532 6.991c-.01.328-.338.623-.677.61-.348-.013-.611-.29-.598-.63.013-.35.31-.622.665-.608.341.013.62.3.61.628" transform="translate(1 3)"/>
            </g>
        </g>
    </g>
</svg>
