<svg xmlns="http://www.w3.org/2000/svg" xmlns:xlink="http://www.w3.org/1999/xlink" width="24" height="24" viewBox="0 0 24 24">
    <defs>
        <path id="prefix__a" d="M8 0h8c4.418 0 8 3.582 8 8v8c0 4.418-3.582 8-8 8H8c-4.418 0-8-3.582-8-8V8c0-4.418 3.582-8 8-8z"/>
    </defs>
    <g fill="none" fill-rule="evenodd">
        <mask id="prefix__b" fill="#fff">
            <use xlink:href="#prefix__a"/>
        </mask>
        <use fill="#BDBDBD" xlink:href="#prefix__a"/>
        <g mask="url(#prefix__b)">
            <g>
                <path fill="#F7C7A6" d="M3.4 10.093l-1.22 1.344-.524 1.24.335 1.317 3.94 1.242 1.22-2.395 8.832 1.029s1.923-.1 2.053-.2c.13-.099 1.967-1.618 1.967-1.618l-.052-2.326-3.336.209-4.443.543-4.906-.8-1.794.661-2.073-.246z" transform="translate(1 4)"/>
                <path fill="#F1F2F2" d="M18.702 11.848c-.156-.105-.25-.124-.392.014-.163.159-.37.092-.556.033-.193-.06-.303-.016-.325.191-.042.39-.296.651-.559.894-.351.326-.74.196-1.091.001-.325-.18-.546-.448-.467-.804.019-.515.23-.84.6-1.115.922-.683 1.96-.684 3.018-.552.435.055.74.463.717.841-.03.512-.524.78-.945.497m-3.74-2.42c-.328-.155-.416-.463-.244-.787.209-.394.497-.556.97-.502.387.043.634.152.706.525.008.04.013.081.015.097-.02.503-.599.905-1.095.782-.12-.03-.242-.062-.352-.115m-1.125 4.745c-.34.694-.906 1.122-1.655 1.365-.555.18-1.117.211-1.67.192-.645-.023-1.267-.23-1.824-.594-.818-.534-1.137-1.32-1.178-2.256-.17-.31-.09-.642-.08-.966.006-.172.111-.249.278-.275.471-.073.945-.033 1.417-.044.73-.017 1.463.142 2.19-.032.469-.113.958-.082 1.423-.253.271-.1.58-.118.875-.127.454-.012.748.451.589.89.11.74-.044 1.444-.365 2.1M5.98 9.57c-.552-.028-.919-.438-.823-.925-.022-.599.308-.767.74-.753.462.015.889.516.865 1-.02.407-.358.7-.782.678m-.484 3.566c-.474.443-.643.49-1.533.447-.564-.011-1.109-.092-1.562-.468-.473-.393-.459-1.015.026-1.401.428-.343.93-.462 1.464-.5.538-.038 1.02.12 1.45.424.554.393.719.97.155 1.498m15.897-.957c-.017-.044-.029-.09-.035-.134-.136-.276-.214-.573-.2-.907.04-1.023-.138-2.012-.348-3.006-.187-.88-.332-1.77-.511-2.654-.205-1.004-.33-.822-.765-1.747-.522-1.11-1.446-1.864-2.54-2.385-.575-.275-1.23-.324-1.839-.504C14.27.58 13.367.48 12.46.377c-.553-.062-1.113.022-1.665.018C9.913.388 9.062.577 8.21.708c-.767.117-1.543.318-2.264.663-.605.29-1.205.562-1.65 1.1-.36.436-.689.638-1.086 1.042-.066.068-.204.335-.261.407-.203.452-.314.928-.368 1.429-.078.713-.2 1.404-.33 2.11-.15.81-.143.414-.119 1.23.024.808.032 1.626-.115 2.423-.086.464-.285 1.015-.72 1.206-.2.18-.32.408-.39.677C.601 14.163.76 15.39.444 16.56c-.1.369-.032.76.092 1.15.17.533.213 1.105.386 1.642.124.383.37.732.75.8.324.057.622.159.928.257 1.212.391 2.477.51 3.728.67 1.063.135 2.137.238 3.025.221 1.581.082 2.971.093 4.366.04 1.253-.05 2.599 1.124 3.853 1.037 1.11-.078 1.986 1.276 3.059.985.049-.014.093-.03.133-.047.034-1.326.188-5.376.302-6.698.071-.82.288-1.585.475-2.383.173-.736.122-1.347-.148-2.054" transform="translate(1 4)"/>
                <path fill="#F9CB8B" d="M14.202 12.073c.11.74-.044 1.444-.365 2.1-.34.694-.906 1.122-1.655 1.365-.555.18-1.117.211-1.67.192-.645-.023-1.267-.23-1.824-.594-.818-.534-1.137-1.32-1.178-2.256.68.202 1.371.215 2.073.166.666-.046 1.328-.103 1.987-.217.798-.139 1.6-.257 2.312-.68.106-.064.205-.084.32-.076" transform="translate(1 4)"/>
                <path fill="#F1F2F2" d="M14.202 12.073c-.115-.008-.214.012-.32.075-.712.424-1.514.542-2.312.68-.659.115-1.321.172-1.987.218-.702.049-1.394.036-2.073-.166-.17-.31-.09-.642-.08-.966.006-.172.111-.249.278-.275.471-.073.945-.033 1.417-.044.73-.017 1.463.142 2.19-.032.469-.113.958-.082 1.423-.253.271-.1.58-.118.875-.127.454-.012.748.451.589.89M5.157 8.645c-.022-.599.308-.767.74-.753.462.015.889.516.865 1-.02.407-.358.7-.782.678-.552-.028-.919-.438-.823-.925M16.409 8.76c-.02.504-.6.906-1.095.783-.12-.03-.242-.062-.352-.115-.328-.155-.416-.463-.244-.787.209-.394.497-.556.97-.502.387.043.634.152.706.525.008.04.013.081.015.097" transform="translate(1 4)"/>
                <path fill="#231916" d="M.758 15.115c-.078.827-.095 1.396-.064 1.963.035.622.126 1.237.402 1.804.095.196.24.422.48.37.252-.054.257-.332.252-.54-.01-.38-.031-.763-.042-1.141-.042-1.465-.177-2.93-.08-4.397.013-.182-.022-.35-.09-.514-.096-.233-.263-.252-.411-.042-.096.135-.144.295-.192.454-.226.752-.191 1.535-.255 2.043m20.8-1.597c.012-.25-.047-.494-.314-.602-.253-.103-.465.023-.633.212-.208.233-.36.502-.49.788-.195.434-.398.865-.681 1.252-.176.24-.412.352-.703.284-.265-.061-.328-.295-.374-.522-.081-.399-.073-.802-.057-1.207.013-.35.037-.704-.02-1.053-.03-.173-.119-.33-.304-.352-.202-.025-.24.16-.292.304-.198.537-.188 1.1-.192 1.657-.005.856.091 1.697.46 2.483.222.475.631.609 1.107.384.286-.135.524-.33.724-.574.255-.312.518-.619.775-.93.51-.617.874-1.304.995-2.124M3.069 5.1c-.07.21-.167.776-.21.989-.251 1.273-.153 1.044-.301 2.618-.131 2.144-.238 4.564-.211 6.996.012 1.077.054 2.153.052 3.23-.002.87-.039 1.07-1.126 1.036-.169-.005-.284-.086-.4-.204-.478-.488-.646-1.107-.704-1.752-.162-1.784-.03-3.558.26-5.32.048-.298.146-.585.301-.845.131-.22.292-.402.592-.368.22.026.28-.135.308-.31.069-.432.075-.867.09-1.301.058-1.646.147-2.09.383-3.721.11-.756.207-1.318.505-2.033.265-.637.69-1.139 1.243-1.554.689-.519 1.389-.997 2.201-1.32C7.074.837 8.233.437 9.305.26c1.332-.218 2.686-.297 4.023-.17 1.614.152 3.172.563 4.58 1.436 1.005.622 1.754 1.426 2.17 2.473 1.016 2.555 1.256 4.162 1.361 6.903.025.647.037 1.287.364 1.898.243.454.169.995.04 1.492-.107.41-.274.802-.397 1.207-.16.531-.133 1.087-.167 1.63-.066 1.064-.142 4.59-.182 5.655-.007.206.069.5-.29.512-.263.008-.457-.237-.437-.569.06-1.023.209-4.503.274-5.526.008-.128.094-.295-.056-.368-.151-.074-.263.073-.37.167-.17.15-.334.31-.505.46-.272.238-.593.374-.943.45-.303.064-.574.001-.817-.192-.322-.258-.574-.565-.706-.962-.393-1.18-.492-2.388-.326-3.617.065-.48.243-.92.57-1.288.4-.45.945-.413 1.273.093.174.267.256.566.257.883.002.403-.005.807-.013 1.21-.003.129-.013.273.134.312.152.04.215-.1.264-.212.193-.437.443-.843.674-1.26.06-.107.113-.238.207-.306.681-.495.372-1.312.342-1.982-.033-.74-.104-1.483-.216-2.22-.28-1.828-.426-2.31-1.093-4.03-.531-1.373-1.87-2.17-3.207-2.74C14.628.964 13.32.7 11.727.78c-1.47.075-3.008.536-4.43.925-1.268.347-2.492 1.1-3.453 2.035 0 0-.49.508-.775 1.358" transform="translate(1 4)"/>
                <path fill="#231916" d="M8.915 11.792c-.176-.008-.352-.012-.528-.026-.185-.014-.37-.032-.555-.059-.188-.028-.325.03-.409.203-.155.32.007.655.358.685.514.045 1.03.064 1.546.083.788.03 1.572-.048 2.358-.09.532-.03 1.043-.148 1.543-.326.186-.066.366-.154.48-.327.091-.141.101-.296.01-.44-.078-.121-.2-.129-.332-.095-1.468.381-2.969.395-4.471.392m1.274 3.686c.343.026.683 0 1.021-.052 1.237-.192 2.178-1.067 2.462-2.28.026-.113.054-.232-.036-.324-.097-.099-.212-.046-.32-.008-.146.052-.287.121-.437.157-1.588.378-3.18.527-4.783.079-.142-.04-.29-.064-.41.054-.131.132-.1.294-.031.435.5 1.02 1.28 1.95 2.534 1.94m4.127-3.046c-.037 2.196-1.642 3.665-3.55 3.822-.926.076-1.716-.308-2.402-.906-.981-.856-1.398-1.973-1.47-3.243-.004-.083-.002-.166.002-.248.025-.537.337-.855.86-.762 1.331.238 2.66.133 3.99.037.65-.046 1.285-.21 1.945-.177.334.017.487.14.536.458.053.338.096.676.09 1.019M5.785 10.036c-.819-.039-1.377-.567-1.348-1.277.035-.84.651-1.376 1.533-1.333.732.035 1.29.679 1.258 1.452-.03.716-.628 1.196-1.443 1.158M16.63 8.86c-.04.761-.681 1.306-1.48 1.259-.636-.038-1.17-.575-1.123-1.17.07-.898.725-1.319 1.529-1.358.618-.03 1.11.602 1.075 1.269" transform="translate(1 4)"/>
            </g>
        </g>
    </g>
</svg>
