<svg xmlns="http://www.w3.org/2000/svg" xmlns:xlink="http://www.w3.org/1999/xlink" width="24" height="24" viewBox="0 0 24 24">
    <defs>
        <path id="prefix__a" d="M8 0h8c4.418 0 8 3.582 8 8v8c0 4.418-3.582 8-8 8H8c-4.418 0-8-3.582-8-8V8c0-4.418 3.582-8 8-8z"/>
        <path id="prefix__c" d="M0 0.017L37.948 0.017 37.948 57.104 0 57.104z"/>
    </defs>
    <g fill="none" fill-rule="evenodd">
        <mask id="prefix__b" fill="#fff">
            <use xlink:href="#prefix__a"/>
        </mask>
        <use fill="#BDBDBD" xlink:href="#prefix__a"/>
        <g mask="url(#prefix__b)">
            <g>
                <g transform="translate(-9 2) translate(0 .087)">
                    <mask id="prefix__d" fill="#fff">
                        <use xlink:href="#prefix__c"/>
                    </mask>
                    <path fill="#050101" d="M36.735 40.312c.017-.415.009-.448-.16-.417-.374.067-.785.1-1.085.319-.188.136-.022.482-.057.732-.005.038-.005.076-.008.114-.069.726-.069.727.69.609.217-.034.434-.066.471-.353.048-.367.108-.732.15-1.004M4.968 21.427c-.165.162-.225.33-.05.55.84 1.06 1.481 2.24 2.102 3.434.046.09.066.277.204.216.128-.056.236-.203.206-.378-.013-.073-.059-.14-.09-.21-.595-1.327-1.363-2.54-2.372-3.612m26.154 20.245c.593.01.606.01.61-.565.003-.26.23-.577.012-.757-.183-.15-.507-.127-.77-.182-.663-.14-.692-.143-.735.496-.076 1.107-.33.9.883 1.008m-4.79 1.662c.142-.364-.045-.328-.308-.285-.972.16-1.943.35-2.936.313-.215-.008-.315.049-.231.283.039.107.062.225.066.338.008.192.093.24.272.204.953-.198 1.928-.264 2.876-.492.203-.049.406-.071.26-.36M7.646 41.128c0 .18.002.359-.001.538-.002.132.033.234.186.233.334-.003.667-.01 1-.02.116-.004.187-.083.223-.186.14-.4.243-.81.298-1.23.02-.16-.026-.241-.21-.224-.28.027-.564.02-.843.053-.74.086-.74.092-.653.836M1.63 40.106c.145.364.256.662.382.955.431.997.467 1.015 1.543.878l.039-.003c.219.01.263-.103.21-.29-.095-.334-.19-.666-.207-1.015-.006-.122-.074-.174-.193-.196-.564-.1-1.126-.208-1.774-.33m16.535 3.815c.06-.288-.056-.401-.358-.43-1.187-.118-2.374-.241-3.53-.561-.07-.02-.155-.051-.206.035-.107.18.232.84.45.86 1.1.093 2.17.4 3.28.436.3.01.41-.042.364-.34M32.41 26.007c.118-.027.149-.119.186-.195.793-1.612 1.722-3.137 2.875-4.52.104-.125.109-.257-.002-.38-.114-.128-.258-.17-.418-.104-.134.054-.218.171-.315.274-.931.994-1.712 2.104-2.485 3.22-.07.102-.16.194-.127.345.093.446.083.913.286 1.36M19.444 7.902c-.36 0-.719.008-1.078-.001-.957-.025-1.88-.237-2.777-.558-.354-.127-.413-.42-.15-.641.076-.064.282-.077.163-.226-.097-.123-.247-.017-.332.075-.28.3-.566.597-.814.923-.374.491-.709 1.01-.816 1.637-.034.198-.044.39.144.522.787.554 1.658.953 2.6 1.107 2.645.433 5.291.33 7.925-.13.997-.174 1.993-.37 2.934-.766.307-.129.554-.355.563-.671.028-1.04-.146-2.045-.711-2.948-.119-.189-.233-.252-.457-.082-.625.477-1.32.84-2.069 1.086-1.665.545-3.383.703-5.125.673m8.365 44.55l.018-.001c-.067-1.114-.107-2.23-.21-3.34-.14-1.506-.366-3.004-.429-4.517-.013-.32-.113-.364-.391-.278-1.331.409-2.7.612-4.086.704-.238.016-.34.108-.393.325-.215.864-.3 1.744-.318 2.628-.027 1.346.074 2.688.15 4.031.065 1.17.267 2.316.469 3.466.061.35.244.47.571.552 1.427.355 2.827.144 4.228-.138.372-.075.55-.281.527-.674-.054-.919-.092-1.839-.136-2.758m-7.46 1.292h-.054c-.03-.59-.035-1.182-.095-1.769-.184-1.812-.37-3.623-.431-5.445-.013-.37-.086-.738-.144-1.105-.04-.262-.18-.385-.473-.38-.487.006-.974-.04-1.461-.056-1.477-.053-2.946-.176-4.385-.521-.354-.085-.414.01-.401.337.057 1.474.115 2.944.369 4.405.363 2.086.765 4.161 1.345 6.2.048.17.126.315.304.367 1.705.489 3.41.69 5.12.008.222-.089.316-.22.31-.464-.014-.525-.005-1.051-.005-1.577m16.728-25.586c-.023-.299-.072-.695-.08-1.092-.03-1.663-.304-3.295-.612-4.922-.03-.158-.072-.308-.253-.349-.174-.039-.25.105-.34.207-.416.476-.755 1.012-1.058 1.557-1.076 1.94-2.17 3.872-2.941 5.966-.302.82-.587 1.648-.803 2.488-.561 2.185-.62 4.443-.865 6.674-.022.2.025.373.223.442.812.279 1.626.612 2.5.558 1.128-.068 2.241-.26 3.315-.644.81-.289.912-.374.952-1.25.053-1.18.059-2.36.056-3.542-.006-1.999-.073-3.996-.094-6.093M5.366 39.774c1.14-.179 2.397-.007 3.618-.364.306-.09.37-.177.32-.442-.02-.1-.03-.203-.044-.305-.23-1.623-.584-3.223-.942-4.82-.381-1.702-.813-3.392-1.211-5.09-.294-1.252-.743-2.456-1.261-3.622-.361-.81-.915-1.538-1.4-2.292-.123-.19-.304-.348-.474-.503-.15-.136-.333-.187-.453.03-.363.648-.782 1.268-1.025 1.977-.54 1.581-.911 3.214-1.193 4.852-.314 1.83-.337 3.7-.396 5.558-.037 1.14-.063 2.283.038 3.426.05.559.308.87.805 1.042 1.143.396 2.335.461 3.618.553M28.773 9.038c.385.71-.12.866-.48 1.084-1.42.866-3.008 1.259-4.628 1.469-2.498.324-5.001.241-7.48-.202-1.185-.212-2.29-.674-3.205-1.494-.16-.144-.265-.082-.403.001-.521.316-.922.776-1.387 1.159-1.02.839-1.771 1.926-2.67 2.877-.898.952-1.566 2.061-2.277 3.141-.51.774-.806 1.662-1.221 2.487-.087.174-.007.259.086.367.294.34.564.697.824 1.065.708 1 1.248 2.095 1.817 3.173.575 1.09 1.194 2.164 1.668 3.298.608 1.454 1.175 2.928 1.665 4.43.843 2.588 1.616 5.196 2.087 7.883.08.454.123.915.184 1.373.017.129.033.25.187.304.786.279 1.554.63 2.377.773 2.546.437 5.112.469 7.68.272.969-.074 1.945-.15 2.872-.51.48-.186.593-.284.623-.81.028-.5.013-1.004.076-1.499.141-1.12.326-2.235.48-3.354.252-1.846.546-3.68 1.17-5.448.467-1.318.845-2.67 1.357-3.971.555-1.411 1.341-2.71 2.164-3.987.804-1.246 1.835-2.282 2.947-3.233.31-.264.295-.433.176-.72-.273-.665-.584-1.318-.805-2-.849-2.616-2.24-4.887-4.228-6.789-.451-.43-.936-.823-1.656-1.14m-12.317-3.75l-.015.35c-.1.286-.022.586-.07.876-.031.192.05.272.239.312.403.085.81.13 1.22.14 1.49.037 2.977-.032 4.46-.15.998-.08 1.99-.234 2.9-.697.143-.073.317-.102.297-.339-.073-.894-.13-1.79-.196-2.686-.11-1.465-.628-1.917-1.81-2.177-1.846-.407-3.675-.188-5.461.393-.516.169-.945.478-1.124 1.026-.31.959-.468 1.942-.44 2.952m15.038 20.988c-.356.516-.616 1.065-.832 1.638-.409 1.083-.7 2.199-1.022 3.309-.414 1.432-.742 2.885-1.014 4.341-.42 2.243-.865 4.49-.896 6.788-.002.146-.044.241-.164.318-.204.132-.164.345-.126.524.04.187.216.074.327.076.254.005.33.156.356.368.449 3.558.663 7.133.722 10.717.01.581-.027 1.156-.171 1.72-.154.602-.274.66-.884.708-.767.058-1.528.203-2.294.26-.869.063-1.745.049-2.608-.06-.906-.113-1.226-.48-1.28-1.382-.103-1.717-.23-3.432-.308-5.15-.075-1.643-.139-3.283-.132-4.927 0-.344.088-.658.238-.962.078-.157.179-.297.36-.316.244-.024.225-.155.214-.346-.021-.335-.165-.439-.489-.391-.6.088-1.205.06-1.807.027-.456-.024-.341.33-.392.553-.071.309.189.202.322.198.381-.011.56.187.634.535.165.782.237 1.576.252 2.372.022 1.132.164 2.254.25 3.38.13 1.715.18 3.437.425 5.144.071.494-.252.904-.746 1.009-1.93.408-3.858.611-5.779-.05-.29-.1-.587-.189-.868-.312-.278-.121-.34-.404-.4-.666-.273-1.188-.5-2.386-.683-3.59-.198-1.308-.391-2.617-.529-3.93-.12-1.149-.205-2.304-.135-3.461.008-.128.023-.257.046-.383.11-.578.402-.831.981-.793.227.015.263-.042.237-.243-.044-.345-.072-.667-.48-.822-.376-.143-.511-.435-.524-.873-.083-2.901-.8-5.684-1.664-8.434-.455-1.447-1.024-2.848-1.692-4.212-.265-.54-.436-1.125-.65-1.689-.077-.201-.132-.414-.322-.63-.15.392-.365.675-.164 1.143.635 1.477.97 3.055 1.412 4.596.64 2.227 1.029 4.503 1.318 6.798.046.36.269.803-.294 1.01-.04.014-.036.164-.046.251-.062.562-.118 1.124-.284 1.668-.11.362-.34.561-.722.584-.748.046-1.488-.019-2.22-.17-.294-.061-.427-.256-.435-.553-.01-.398-.042-.795-.043-1.193-.001-.248-.092-.334-.344-.32-.474.024-.95.03-1.424.019-.18-.004-.23.042-.204.213.057.381.103.764.155 1.146.06.446-.075.673-.503.751-.545.1-1.097.122-1.65.056-.57-.069-.967-.357-1.191-.901-.216-.525-.424-1.05-.503-1.614-.027-.187-.086-.32-.268-.427-.399-.235-.472-.655-.499-1.072-.108-1.67-.045-3.339.029-5.007.071-1.617.21-3.237.485-4.827.373-2.15.883-4.277 1.974-6.21.17-.302.324-.613.47-.928.167-.36.445-.517.832-.492.141.01.288.055.334-.147.037-.161.186-.3 0-.487-.221-.223-.21-.495-.068-.78.194-.39.359-.795.538-1.193 1.3-2.885 3.06-5.457 5.271-7.722.755-.773 1.65-1.347 2.579-1.872.224-.126.392-.27.502-.503.349-.737.82-1.392 1.37-1.993.275-.301.588-.554 1.01-.58.27-.015.335-.13.346-.378.048-1.129.125-2.252.411-3.356.152-.585.488-.982 1-1.243.962-.491 2-.753 3.066-.841 1.036-.086 2.077-.05 3.116.074 1.714.203 2.767 1.596 2.946 3.183.02.178.022.36.013.538-.03.547.023.913.67 1.215.982.458 1.368 1.484 1.608 2.509.058.251.136.389.399.478 1.076.365 1.96 1.05 2.646 1.924 1.479 1.886 2.7 3.928 3.592 6.169.447 1.122.845 2.256 1.205 3.407.072.23.12.442-.146.605-.22.136-.188.484.06.547.49.125.664.492.78.914.364 1.317.543 2.658.565 4.027.014.91.14 1.819.166 2.729.093 3.416.227 6.833-.022 10.246-.068.929-.195 1.86-.467 2.764-.175.577-.498.929-1.122.994-.41.043-.812.116-1.219-.017-.446-.146-.533-.27-.49-.729.031-.32.05-.64.082-.96.027-.274-.04-.397-.36-.35-.379.056-.768.069-1.152.061-.235-.004-.316.087-.347.299-.055.38-.126.76-.26 1.124-.172.47-.41.65-.913.66-.564.012-1.127.01-1.689-.082-.339-.057-.5-.244-.535-.556-.03-.255-.029-.513-.04-.769-.081-1.802-.043-3.601.24-5.385.19-1.191.383-2.384.71-3.547.093-.328.073-.66.131-.987.204-1.139.7-2.173 1.15-3.218.25-.583.126-1.102-.03-1.656" mask="url(#prefix__d)"/>
                </g>
                <path fill="#76BABD" d="M20.948 25.414c-.042 1.792.468 3.428 1.357 4.955.238.409.52.81.977 1.009.922.404 1.874.377 2.833.154.14-.033.267-.103.355-.219.417-.55.877-1.073 1.167-1.713.835-1.843 1.239-3.804 1.52-5.787.258-1.826.111-3.635-.44-5.407-.525-1.685-2.01-2.515-3.704-2.049-1.258.346-2.039 1.227-2.645 2.316-1.17 2.104-1.348 4.413-1.42 6.741m7.826-16.29c.72.317 1.204.709 1.655 1.14 1.988 1.901 3.38 4.173 4.228 6.79.221.68.532 1.334.805 1.998.119.287.133.456-.176.72-1.112.951-2.143 1.987-2.946 3.234-.824 1.277-1.61 2.576-2.165 3.987-.512 1.3-.89 2.652-1.356 3.971-.625 1.768-.919 3.602-1.172 5.448-.153 1.119-.338 2.234-.48 3.354-.062.495-.048 1-.075 1.5-.03.525-.143.623-.623.81-.927.36-1.903.435-2.872.509-2.568.196-5.134.165-7.68-.273-.823-.141-1.59-.494-2.377-.772-.154-.055-.17-.176-.187-.304-.06-.458-.104-.919-.184-1.374-.471-2.686-1.244-5.294-2.087-7.883-.49-1.5-1.057-2.976-1.665-4.43-.474-1.133-1.093-2.208-1.668-3.297-.57-1.078-1.109-2.173-1.817-3.174-.26-.368-.53-.724-.824-1.064-.093-.109-.173-.194-.086-.367.415-.825.712-1.714 1.221-2.487.711-1.08 1.38-2.19 2.278-3.142.897-.95 1.65-2.037 2.669-2.876.465-.383.866-.843 1.388-1.16.137-.083.242-.144.402 0 .916.82 2.02 1.281 3.205 1.493 2.479.444 4.982.527 7.48.203 1.62-.21 3.207-.603 4.629-1.47.358-.218.865-.374.48-1.083M37.076 28.245c.021 2.097.088 4.094.094 6.092.003 1.182-.003 2.363-.056 3.543-.04.876-.143.961-.952 1.25-1.074.383-2.187.575-3.315.644-.874.053-1.688-.28-2.5-.559-.198-.068-.245-.241-.223-.441.245-2.231.304-4.49.865-6.675.216-.84.501-1.668.803-2.488.77-2.094 1.865-4.025 2.941-5.965.303-.546.642-1.082 1.058-1.557.089-.102.166-.246.34-.207.181.04.223.191.253.348.308 1.628.582 3.26.612 4.923.008.397.057.793.08 1.092" transform="translate(-9 2)"/>
                <path fill="#436C75" d="M19.444 7.989c1.742.03 3.46-.129 5.125-.674.75-.245 1.444-.608 2.07-1.085.223-.17.337-.107.456.082.565.903.74 1.908.71 2.948-.008.316-.255.542-.562.67-.941.396-1.937.592-2.934.767-2.634.46-5.28.563-7.926.13-.941-.155-1.812-.553-2.6-1.107-.187-.132-.177-.325-.143-.522.107-.628.442-1.146.816-1.638.248-.325.534-.622.814-.923.085-.09.235-.197.332-.075.119.15-.087.163-.162.226-.264.221-.205.515.149.641.898.322 1.82.533 2.777.558.36.01.719.002 1.078.002" transform="translate(-9 2)"/>
                <path fill="#EEE" d="M22.154 3.672c.298-.002.53-.213.537-.49.006-.281-.28-.568-.567-.567-.301.002-.538.244-.529.542.009.294.25.516.559.515m-4.073.237c.425-.002.687-.196.683-.507-.004-.278-.289-.535-.594-.538-.324-.004-.639.26-.64.537-.003.287.238.509.551.508m5.206 2.162c.115.04.266-.078.431-.078.372-.001.617-.164.679-.539.073-.438-.122-.752-.52-.918-.668-.278-1.339.154-1.663.621-.159.228-.003.637.271.742.237.09.484.161.802.172m-2.907.745c.737-.004 1.251-.41 1.375-1.088.101-.55-.085-.735-.65-.657-.561.078-1.121.116-1.684.003-.395-.08-.578.092-.563.5.03.75.64 1.247 1.522 1.242m-3.924-1.442c-.028-1.01.13-1.994.44-2.952.179-.548.608-.858 1.124-1.026 1.786-.581 3.615-.8 5.461-.394 1.182.26 1.7.713 1.81 2.178.066.895.123 1.791.196 2.686.02.237-.154.266-.297.339-.91.463-1.902.617-2.9.697-1.483.118-2.97.187-4.46.15-.41-.011-.817-.056-1.22-.14-.19-.04-.27-.12-.239-.312.048-.29-.03-.59.07-.877.019.192.03.383.236.49.432.22.863.228 1.28-.016.247-.144.395-.374.35-.674-.045-.289-.212-.475-.503-.563-.579-.175-.946-.069-1.348.414" transform="translate(-9 2)"/>
                <path fill="#436C75" d="M32.41 26.094c-.203-.447-.193-.914-.286-1.36-.032-.15.057-.243.127-.345.773-1.116 1.554-2.226 2.485-3.22.097-.103.181-.22.315-.275.16-.064.304-.023.418.104.11.124.106.256.002.381-1.153 1.383-2.082 2.908-2.875 4.52-.037.076-.068.167-.186.195" transform="translate(-9 2)"/>
                <path fill="#F0F5D7" d="M16.456 5.374c.402-.483.77-.59 1.348-.414.29.088.458.274.502.563.046.3-.102.53-.348.674-.418.244-.85.236-1.28.015-.208-.106-.218-.297-.237-.489l.015-.35" transform="translate(-9 2)"/>
                <path fill="#050101" d="M27.865 26.627c-.141-.045-.23.02-.321.051-1.883.656-3.702.612-5.42-.502-.23-.149-.222-.01-.225.15-.016 1.207.26 2.342.845 3.397.2.36.444.68.8.918 1.071.71 2.609.048 3.204-.887.604-.947.868-2.038 1.117-3.127m.48-3.623c.036-1.22-.213-2.403-.529-3.566-.169-.625-.37-1.255-.734-1.813-.187-.286-.419-.491-.756-.543-.952-.145-1.757.166-2.372.884-.63.735-1.108 1.565-1.405 2.5-.364 1.148-.513 2.326-.602 3.517-.079 1.05.076 1.48 1.277 1.993 1.013.433 2.082.518 3.13.194 1.372-.425 1.999-.948 1.99-2.511v-.655m-7.396 2.41c.072-2.328.25-4.637 1.42-6.74.606-1.09 1.387-1.971 2.645-2.317 1.695-.466 3.18.364 3.704 2.05.551 1.772.698 3.58.44 5.406-.281 1.983-.685 3.944-1.52 5.787-.29.64-.75 1.162-1.167 1.713-.088.116-.214.186-.355.219-.96.223-1.911.25-2.833-.154-.457-.2-.739-.6-.977-1.009-.889-1.527-1.399-3.164-1.357-4.955M21.114 5.719c-.549.079-1.033.048-1.554.06.43.553 1.162.536 1.554-.06m-.734 1.097c-.883.005-1.493-.493-1.522-1.242-.015-.408.168-.58.563-.5.562.113 1.123.075 1.683-.003.566-.078.752.106.651.657-.124.677-.638 1.084-1.375 1.088" transform="translate(-9 2)"/>
                <path fill="#F0F5D7" d="M23.287 6.07c-.318-.01-.565-.08-.802-.171-.274-.105-.43-.514-.271-.742.324-.467.995-.899 1.664-.62.397.165.592.48.52.917-.063.375-.308.538-.68.539-.165 0-.316.118-.43.078" transform="translate(-9 2)"/>
                <path fill="#050101" d="M18.081 3.909c-.313 0-.554-.221-.552-.508.002-.277.317-.54.641-.537.305.003.59.26.594.538.004.31-.258.505-.683.507M22.154 3.672c-.309.001-.55-.221-.559-.515-.009-.298.228-.54.529-.542.287-.001.573.286.567.568-.007.276-.239.487-.537.489" transform="translate(-9 2)"/>
                <path fill="#F0F5D7" d="M28.344 23.004v.655c.009 1.563-.618 2.086-1.99 2.511-1.048.324-2.117.24-3.13-.194-1.201-.514-1.356-.943-1.277-1.993.089-1.191.238-2.37.602-3.516.297-.936.775-1.765 1.405-2.5.615-.719 1.42-1.03 2.372-.885.337.052.57.257.756.543.365.558.565 1.188.734 1.813.316 1.163.565 2.347.528 3.566" transform="translate(-9 2)"/>
                <path fill="#D8D8D6" d="M21.114 5.719c-.392.596-1.124.613-1.554.06.52-.012 1.005.019 1.554-.06" transform="translate(-9 2)"/>
            </g>
        </g>
    </g>
</svg>
