<svg xmlns="http://www.w3.org/2000/svg" xmlns:xlink="http://www.w3.org/1999/xlink" width="24" height="24" viewBox="0 0 24 24">
    <defs>
        <path id="prefix__a" d="M8 0h8c4.418 0 8 3.582 8 8v8c0 4.418-3.582 8-8 8H8c-4.418 0-8-3.582-8-8V8c0-4.418 3.582-8 8-8z"/>
        <path id="prefix__c" d="M0 0.002L27.939 0.002 27.939 23.908 0 23.908z"/>
    </defs>
    <g fill="none" fill-rule="evenodd">
        <mask id="prefix__b" fill="#fff">
            <use xlink:href="#prefix__a"/>
        </mask>
        <use fill="#BDBDBD" xlink:href="#prefix__a"/>
        <g mask="url(#prefix__b)">
            <g>
                <g transform="translate(-2 4) translate(0 .105)">
                    <mask id="prefix__d" fill="#fff">
                        <use xlink:href="#prefix__c"/>
                    </mask>
                    <path fill="#050101" d="M8.15 22.654c-.053-.274-.038-.525-.083-.775-.07-.394-.123-.796.048-1.184.022-.05.043-.132-.02-.15-.149-.041-.301-.106-.462-.029-.146.07-.091.2-.073.294.104.519.22 1.036.342 1.551.026.113.074.233.247.293m12.078-.647c0-.178.016-.358-.004-.534-.03-.257-.234-.23-.411-.206-.087.011-.247.001-.182.168.196.507.133 1.035.148 1.557.002.065-.05.167.06.187.08.015.13-.055.174-.12.215-.32.245-.681.215-1.052M.753 20.145c.132-.156.13-.316.149-.47.077-.64.114-1.29.244-1.918.347-1.686.956-3.29 1.609-4.877.392-.951 1.018-1.763 1.668-2.553.25-.305.35-.658.307-1.049-.007-.062-.023-.152-.065-.176-.083-.048-.129.05-.175.099-.193.206-.359.434-.499.678-1.195 2.09-2.177 4.269-2.81 6.6-.26.956-.496 1.914-.537 2.909-.01.248.006.495.11.757M7.266 1.723l.02.071c.419.019.838.045 1.257.055 3.049.077 6.102.019 9.145.297.791.072 1.585.145 2.37.269.622.098 1.188.105 1.732-.298.435-.321.924-.571 1.421-.795.047-.02.113-.037.099-.116-.082-.052-.174-.064-.269-.067-.779-.021-1.558-.035-2.336-.067-.75-.031-1.5-.077-2.248-.124C17.4.882 16.344.79 15.286.743c-1.05-.047-2.103-.05-3.154-.074-1.129-.026-2.245.026-3.31.462-.514.21-1.036.396-1.555.592m14.036 16.192c0 .357-.015.715.003 1.07.021.412.055.824.111 1.232.046.33.214.4.514.252.201-.1.397-.213.603-.3.544-.232 1.001-.587 1.435-.977.202-.181.343-.4.379-.672.199-1.537.33-3.076.249-4.63-.024-.457-.168-.854-.385-1.243-.383-.69-.81-1.35-1.293-1.974-.23-.297-.484-.575-.706-.877-.127-.173-.132-.374.05-.53.146-.124.293-.102.426.03.505.506.982 1.031 1.347 1.654 1.138 1.946 1.989 4 2.452 6.216.214 1.025.451 2.045.628 3.078.017.097-.004.27.146.264.185-.007.116-.182.12-.29.018-.444-.034-.885-.14-1.312-.458-1.831-.873-3.68-1.512-5.456-.687-1.906-1.12-3.94-2.501-5.538-.09-.103-.051-.232.026-.34.08-.11.19-.155.32-.118.207.06.363.191.477.372.1.159.197.32.296.479.025.04.05.09.103.083.083-.01.058-.085.057-.134-.004-.272-.005-.545-.022-.816-.07-1.114-.175-2.226-.206-3.343-.016-.6-.05-1.2-.097-1.799-.028-.364-.183-.438-.506-.26-.476.264-.93.57-1.42.801-.53.25-.758.637-.727 1.205.008.15-.01.3-.006.45.026 1.127.032 2.255.086 3.38.08 1.691-.021 3.379-.1 5.066-.076 1.659-.18 3.316-.207 4.977m-.368-6.527c.023-2.432-.022-4.862-.317-7.28-.073-.601-.377-1.145-1.158-1.122-.194.005-.391-.034-.586-.059-1.228-.158-2.462-.295-3.696-.31-2.263-.028-4.524-.145-6.788-.134-.883.004-1.763.093-2.647.068-.425-.012-.434.011-.446.44-.087 3.323.082 6.647-.1 9.97-.116 2.12-.053 4.245-.075 6.368-.003.268.095.368.338.396.745.088 1.49.16 2.24.178.63.015 1.257.06 1.886.077 1.332.038 2.658.182 3.99.207 1.163.022 2.323.12 3.48.23.951.091 1.901.193 2.853.269.533.041.57-.021.661-.549.124-.727.084-1.46.12-2.19.107-2.185.216-4.37.245-6.559m-16.356-.186c-.575.697-1.058 1.454-1.38 2.3-.367.962-.72 1.93-1.043 2.908-.377 1.147-.496 2.345-.629 3.538-.03.27-.114.513-.3.712-.355.38-.864.29-1.072-.188-.118-.271-.145-.56-.153-.853-.028-1.073.242-2.096.5-3.126.593-2.373 1.594-4.574 2.77-6.703.301-.545.698-1.025 1.135-1.466.187-.19.259-.395.246-.657-.088-1.822.008-3.644-.03-5.466-.005-.205.077-.368.283-.391.98-.113 1.825-.61 2.727-.94.8-.291 1.584-.634 2.43-.781.351-.061.708-.078 1.066-.082 2.368-.029 4.731.077 7.092.263 1.648.13 3.3.181 4.953.226.413.011.825.042 1.237.072.327.024.493.176.542.505.035.231.062.466.066.7.04 2.47.274 4.934.201 7.407-.02.692.178 1.355.4 2.006.85 2.49 1.604 5.006 2.182 7.573.129.574.188 1.148.084 1.733-.067.377-.23.67-.632.778-.3.082-.45.026-.603-.252-.157-.284-.223-.597-.269-.913-.201-1.396-.51-2.768-.897-4.124-.007-.027-.01-.056-.02-.082-.031-.073-.029-.196-.137-.182-.09.01-.065.121-.071.192-.061.702-.133 1.403-.178 2.106-.083 1.286-.075 1.288-1.151 1.97-.706.447-1.426.869-2.173 1.245-.216.11-.426.236-.69.202-.171-.022-.16.116-.16.23 0 .338 0 .676-.056 1.011-.075.44-.232.834-.63 1.086-.533.339-1.06.076-1.1-.555-.016-.27.001-.544-.007-.817-.005-.177-.012-.357-.045-.531-.088-.467-.245-.604-.71-.65-2.393-.237-4.79-.4-7.194-.461-.365-.01-.73-.052-1.095-.086-.328-.032-.652-.032-.98.022-.276.045-.389.196-.41.451-.027.34.034.674.085 1.008.045.298.07.599-.015.893-.13.452-.547.596-.925.32-.275-.2-.46-.471-.547-.799-.16-.607-.342-1.21-.377-1.843-.012-.226-.107-.323-.336-.298-.567.062-1.122-.066-1.682-.114-.282-.024-.347-.243-.375-.484-.108-.935-.108-1.873-.084-2.813.039-1.484.062-2.968.144-4.45.025-.444.06-.888.09-1.332l-.077-.018" mask="url(#prefix__d)"/>
                </g>
                <path fill="#D6E489" d="M18.295 9.635c.293 0 .546.015.792-.06.235-.071.351-.22.365-.47.014-.255-.06-.418-.322-.51-.454-.162-.919-.165-1.384-.134-.229.015-.46.087-.632.267-.283.295-.17.695.226.798.327.085.658.13.955.109M7.098 9.41c.418.003.755-.055 1.068-.223.176-.093.246-.232.239-.436-.007-.204-.125-.303-.282-.38-.1-.049-.206-.09-.312-.126-.553-.185-1.103-.357-1.67-.024-.192.113-.333.23-.336.47-.004.248.12.402.326.514.323.177.683.167.967.205m9.525-1.176c.225.015.455-.055.66-.198.48-.331.63-1.01.313-1.402-.354-.44-1.258-.575-1.726-.256-.176.12-.3.28-.37.481-.244.706.286 1.37 1.123 1.375M9.07 8.001c.727.008 1.32-.697 1.064-1.384-.163-.434-.73-.747-1.268-.7-.557.05-1.062.455-1.145.924-.04.221.003.426.139.61.276.377.65.548 1.21.55m3.781 2.053c.188 0 .375.005.563-.001.29-.01.581-.028.843-.178.333-.19.451-.546.337-1.01-.069-.279-.224-.365-.666-.363-.544.002-1.088.007-1.63-.045-.373-.035-.748-.067-1.122-.068-.4 0-.636.285-.598.683.04.415.294.653.666.786.52.186 1.06.22 1.607.196m8.083 1.44c-.029 2.188-.138 4.373-.245 6.558-.036.73.004 1.464-.12 2.19-.09.528-.128.59-.66.549-.953-.075-1.903-.178-2.853-.268-1.158-.111-2.318-.209-3.48-.23-1.333-.025-2.66-.17-3.991-.207-.629-.018-1.257-.062-1.885-.077-.751-.018-1.496-.09-2.241-.178-.243-.029-.34-.129-.338-.397.022-2.122-.04-4.247.075-6.367.182-3.323.013-6.648.1-9.97.012-.43.021-.453.446-.44.884.025 1.764-.064 2.647-.069 2.264-.01 4.525.106 6.788.134 1.234.015 2.468.153 3.696.31.195.026.392.065.586.059.781-.023 1.085.521 1.158 1.122.295 2.418.34 4.848.317 7.28" transform="translate(-2 4)"/>
                <path fill="#D4E49C" d="M21.302 18.02c.027-1.66.132-3.318.209-4.977.078-1.687.18-3.374.099-5.066-.054-1.125-.06-2.252-.086-3.379-.003-.15.014-.3.006-.45-.03-.568.198-.955.727-1.205.49-.232.944-.538 1.42-.801.323-.179.478-.104.506.26.046.598.08 1.199.097 1.799.03 1.117.136 2.228.206 3.342.017.272.018.544.022.816 0 .05.026.124-.057.134-.053.007-.078-.043-.103-.083-.099-.16-.195-.32-.296-.479-.114-.18-.27-.312-.477-.371-.13-.038-.24.008-.32.118-.077.107-.116.236-.026.34 1.382 1.597 1.814 3.631 2.5 5.537.64 1.776 1.055 3.625 1.512 5.457.107.426.159.867.141 1.31-.004.11.065.284-.12.292-.15.006-.13-.168-.146-.265-.177-1.033-.413-2.053-.628-3.078-.463-2.215-1.314-4.27-2.452-6.215-.365-.623-.842-1.148-1.347-1.654-.133-.133-.28-.154-.425-.03-.183.156-.178.357-.05.53.221.302.475.58.705.876.484.624.91 1.285 1.293 1.974.217.39.361.787.385 1.244.08 1.553-.05 3.093-.25 4.629-.035.273-.176.491-.378.672-.434.39-.891.746-1.435.977-.206.087-.402.201-.603.3-.3.15-.468.078-.514-.252-.056-.408-.09-.82-.11-1.231-.019-.356-.005-.713-.005-1.07M7.267 1.829c.519-.197 1.041-.383 1.554-.593C9.887.801 11.003.748 12.132.774c1.051.024 2.103.028 3.154.074 1.058.047 2.114.14 3.172.205.749.047 1.498.093 2.248.124.778.033 1.557.046 2.336.068.095.002.187.014.269.067.014.079-.052.095-.099.116-.497.223-.986.473-1.42.794-.545.403-1.11.396-1.734.298-.784-.123-1.578-.196-2.37-.269-3.041-.278-6.095-.22-9.144-.296-.42-.01-.838-.037-1.257-.055l-.02-.071zM.753 20.25c-.103-.261-.12-.508-.11-.757.042-.995.279-1.952.539-2.91.632-2.33 1.614-4.509 2.81-6.598.14-.245.305-.472.498-.679.046-.05.092-.146.175-.099.042.025.058.114.065.177.043.39-.056.743-.307 1.048-.65.79-1.276 1.602-1.668 2.554-.653 1.586-1.262 3.19-1.609 4.876-.13.63-.166 1.278-.244 1.918-.019.154-.017.314-.149.47" transform="translate(-2 4)"/>
                <path fill="#050101" d="M12.574 9.527c.456-.064.94-.074 1.359-.34.096-.062.25-.13.203-.27-.043-.13-.197-.077-.301-.07-.844.049-1.684.04-2.52-.094-.135-.022-.27.022-.316.174-.044.148.069.225.177.283.431.233.91.258 1.398.317m.278.527c-.546.024-1.087-.01-1.607-.196-.372-.133-.627-.37-.666-.786-.038-.398.198-.684.598-.683.374 0 .749.033 1.122.068.542.052 1.086.047 1.63.045.443-.002.597.084.666.363.114.464-.004.82-.337 1.01-.262.15-.553.168-.843.178-.188.006-.375.001-.563.001M8.916 6.536c-.325.003-.573.213-.576.488-.003.27.223.468.524.459.332-.01.618-.238.62-.493.003-.261-.243-.458-.568-.454M9.071 8c-.56-.002-.934-.173-1.21-.55-.136-.184-.178-.389-.14-.61.084-.47.589-.874 1.146-.923.538-.048 1.105.265 1.268.7.256.686-.337 1.391-1.064 1.383M16.053 7.291c0 .296.198.485.5.48.324-.007.586-.257.582-.558-.003-.274-.196-.451-.493-.453-.35-.002-.59.213-.589.531m.57.943c-.837-.005-1.367-.67-1.122-1.375.07-.2.193-.362.37-.481.467-.319 1.37-.184 1.725.256.316.392.167 1.07-.312 1.402-.206.143-.436.213-.661.198" transform="translate(-2 4)"/>
                <path fill="#FAE7CB" d="M7.098 9.41c-.284-.038-.644-.027-.967-.205-.205-.112-.33-.266-.327-.513.004-.241.145-.358.337-.47.567-.334 1.117-.162 1.67.023.106.036.211.077.312.126.157.077.275.175.282.38.007.204-.063.343-.239.436-.313.168-.65.226-1.068.223M18.295 9.635c-.297.021-.628-.024-.955-.109-.397-.103-.51-.503-.226-.798.172-.18.403-.252.632-.267.465-.031.93-.028 1.384.133.262.093.336.256.322.512-.014.25-.13.398-.365.47-.246.074-.499.059-.792.059" transform="translate(-2 4)"/>
                <path fill="#EED7A8" d="M12.574 9.527c-.488-.059-.967-.084-1.398-.317-.108-.058-.221-.135-.177-.283.045-.152.181-.196.315-.174.837.133 1.677.143 2.52.093.105-.006.259-.059.302.07.046.141-.107.21-.203.27-.418.267-.903.277-1.359.341" transform="translate(-2 4)"/>
                <path fill="#FAFAFA" d="M8.916 6.536c.325-.004.57.193.568.454-.002.255-.288.482-.62.493-.3.009-.527-.189-.524-.46.003-.274.25-.484.576-.487M16.053 7.291c0-.318.238-.533.589-.531.297.002.49.18.493.453.004.3-.258.551-.583.558-.301.005-.498-.184-.499-.48" transform="translate(-2 4)"/>
            </g>
        </g>
    </g>
</svg>
