<svg xmlns="http://www.w3.org/2000/svg" xmlns:xlink="http://www.w3.org/1999/xlink" width="24" height="24" viewBox="0 0 24 24">
    <defs>
        <path id="prefix__a" d="M8 0h8c4.418 0 8 3.582 8 8v8c0 4.418-3.582 8-8 8H8c-4.418 0-8-3.582-8-8V8c0-4.418 3.582-8 8-8z"/>
        <path id="prefix__c" d="M0 0.044L29.89 0.044 29.89 28.326 0 28.326z"/>
    </defs>
    <g fill="none" fill-rule="evenodd">
        <mask id="prefix__b" fill="#fff">
            <use xlink:href="#prefix__a"/>
        </mask>
        <use fill="#BDBDBD" xlink:href="#prefix__a"/>
        <g mask="url(#prefix__b)">
            <g>
                <g transform="translate(-3 -2) translate(0 .085)">
                    <mask id="prefix__d" fill="#fff">
                        <use xlink:href="#prefix__c"/>
                    </mask>
                    <path fill="#050101" d="M8.48 11.207c.163-.046.358-.105.373-.334.013-.203-.126-.324-.321-.336-.251-.014-.381.144-.389.377-.006.189.134.269.337.293m1.537-5.273c-.009 1.233.609 1.829 1.62 1.728.665-.066 1.327-.188 1.926-.509 1.018-.544 2.087-.96 3.216-1.17 1.376-.255 2.763-.442 4.145.03.532.181.98-.187.91-.743-.247-1.945-1.532-3.478-3.401-3.83-1.404-.263-2.823-.25-4.236-.15-.66.045-1.304.253-1.89.612-1.587.973-2.086 2.523-2.29 4.032m4.108 21.31c.725-.098 1.459-.01 2.19-.039 2.182-.085 4.348-.327 6.511-.602.913-.116 1.849-.216 2.682-.633 1.147-.574 1.864-1.513 2.29-2.742.665-1.911 1.324-3.777.433-5.817-.46-1.053-1.028-1.572-2.154-1.496-1.173.08-2.348.183-3.495.474-3.536.9-7.122 1.385-10.772 1.113-1.627-.121-3.285-.248-4.696-1.24-.13-.092-.26-.128-.396-.035-.449.31-.976.46-1.45.716-1.914 1.031-3.018 2.74-3.804 4.68C1 22.77 1.191 24.274 2.148 25c.556.421 1.213.616 1.872.808 3.298.966 6.62 1.756 10.105 1.437M8.03 12.054c-.114-.108-.239-.208-.338-.328-.288-.345-.473-.218-.586.131-.12.371-.29.738-.2 1.147-.185 1.406.854 2.548 2.175 3.22.993.505 2.114.665 3.239.73 2.176.124 4.227-.66 6.364-.848 1.228-.107 2.432-.469 3.651-.692.815-.15 1.65-.122 2.47-.202 1.288-.125 1.808-.569 1.667-1.53-.242-1.651-.71-3.195-2.023-4.353-.654-.577-1.18-1.325-2.008-1.67-2.375-.988-4.79-.915-7.173-.071-1.46.517-2.871 1.092-4.481.944-.809-.074-1.365.547-1.968 1.082.145.058.22.085.29.118.616.286.943.946.757 1.525-.217.677-.807.989-1.554.826-.092-.02-.188-.02-.282-.028m-6.14 6.337c.87-1.118 2.06-1.879 3.126-2.776.188-.158.447-.235.676-.342.205-.096.29-.21.174-.446-.41-.839-.338-1.71-.072-2.559.527-1.673 1.553-3.045 2.748-4.294.24-.25.398-.507.245-.795-.522-.988-.194-1.944.118-2.865.564-1.66 1.676-2.899 3.198-3.762.623-.353 1.33-.408 2.023-.508.638.064 2.539-.251 5.563.706.875.383 1.481 1.073 2.072 1.79.905 1.097 1.4 2.329 1.32 3.766-.006.113-.02.236.077.312.636.502.929 1.29 1.522 1.824 1.87 1.687 2.64 3.91 3.075 6.294.03.166.068.307.207.408.342.248.579.587.8.937 2.506 3.135.057 7.736.023 7.957-.174.32-.255.706-.533.953-.93.824-1.89 1.612-3.08 2.045-1.087.394-2.234.486-3.361.676-3.45.581-6.918.796-10.407.44-2.952-.303-5.823-.95-8.634-1.928C1.381 25.74.261 24.778.005 23.549c-.122-3.081 1.87-5.054 1.885-5.157" mask="url(#prefix__d)"/>
                </g>
                <path fill="#BFBBB8" d="M10.286 21.238c.828-.003 1.404-.534 1.364-1.32-.051-.988-.504-1.306-1.633-1.35-.626-.026-1.224.657-1.212 1.355.013.73.676 1.318 1.48 1.315m10.924-.942c-.002-.818-.429-1.326-1.113-1.326-1.181.001-1.833.471-1.845 1.33-.01.707.667 1.245 1.568 1.244.907 0 1.391-.435 1.39-1.248m-13.32.952c-.127 0-.26-.023-.381.004-.358.078-.753.14-.828.593-.072.434.257.626.57.785.915.467 1.885.515 2.872.306.334-.07.567-.311.635-.648.071-.349-.219-.502-.454-.657-.226-.15-.481-.278-.752-.282-.557-.007-1.11-.039-1.662-.101m14.027 2.097c.685.01 1.296.046 1.845-.28.37-.22.437-.643.157-.972-.289-.34-.674-.449-1.103-.477-.817-.055-1.612.118-2.416.194-.49.047-.809.298-.823.693-.01.315.363.705.76.733.553.04 1.1.178 1.58.11m-6.403.488c1.093-.003 1.687-.512 1.967-1.687.214-.895-.074-1.18-.97-1.05-.805.115-1.623.131-2.416-.085-.3-.081-.568-.231-.835.037-.298.3-.363.648-.238 1.053.36 1.153 1.19 1.736 2.492 1.732m-1.388 3.495c-3.485.319-6.807-.471-10.105-1.436-.659-.193-1.316-.387-1.872-.809-.957-.725-1.148-2.23-.684-3.375.787-1.94 1.89-3.65 3.804-4.681.474-.256 1.001-.405 1.45-.716.135-.093.266-.056.396.036 1.411.99 3.07 1.118 4.696 1.24 3.65.272 7.236-.215 10.772-1.114 1.146-.29 2.322-.395 3.495-.474 1.126-.076 1.694.443 2.154 1.496.89 2.04.232 3.906-.432 5.817-.427 1.229-1.144 2.168-2.29 2.742-.834.417-1.77.517-2.683.633-2.163.275-4.33.517-6.51.602-.732.029-1.467-.06-2.191.039" transform="translate(-3 -2)"/>
                <path fill="#A99D8F" d="M11.422 14.134c.218-.046.468-.135.507-.468.043-.379-.183-.563-.513-.623-.514-.094-1.035-.142-1.523-.352-.41-.175-.766-.064-.87.276-.12.39.13.592.442.73.602.268 1.25.341 1.957.437m2.053-1.276c-.338.619-.3 1.026.175 1.19.783.268 1.59.425 2.423.211.317-.081.58-.246.598-.588.019-.333-.211-.548-.502-.685-.401-.19-.83-.165-1.259-.171-.292-.004-.596.101-.877-.067.149-.137.308-.264.445-.412.266-.287.36-.614.242-1.007-.263-.867-.756-1.107-1.708-.81-.524.164-.808.57-.794 1.135.012.495.335.92.806 1.062.151.046.3.094.45.142M8.03 12.14c.094.009.19.008.282.028.747.163 1.337-.148 1.554-.826.186-.579-.141-1.24-.757-1.525-.071-.033-.145-.06-.29-.118.603-.535 1.16-1.156 1.968-1.081 1.61.147 3.021-.428 4.481-.945 2.384-.844 4.798-.917 7.173.071.829.345 1.354 1.093 2.008 1.67 1.312 1.158 1.781 2.702 2.023 4.352.141.963-.379 1.406-1.667 1.531-.82.08-1.655.052-2.47.202-1.219.224-2.423.585-3.65.693-2.137.186-4.19.972-6.365.847-1.125-.065-2.246-.225-3.24-.73-1.32-.672-2.359-1.814-2.174-3.22.167.038.332.092.501.111.644.072.898-.285.64-.88-.024-.053-.012-.12-.017-.18" transform="translate(-3 -2)"/>
                <path fill="#B7AEA1" d="M16.077 4.399c.401-.028.723.02 1.034-.077.195-.06.283-.192.28-.392-.003-.186-.103-.327-.274-.34-.555-.04-1.116-.065-1.657.1-.182.055-.273.228-.241.42.032.196.173.304.37.308.191.003.382-.014.488-.02m2.446-.846c-.007.723.043.772.787.772.301 0 .602.003.903 0 .353-.005.596-.176.593-.534-.002-.357-.245-.523-.599-.527-.348-.005-.696-.018-1.043-.027.265-.722-.127-1.284-.982-1.407-.519-.075-.952.17-1.059.595-.11.437.184.894.696 1.035.226.062.468.064.704.093m-4.696.026c.156.018.312.057.467.051.452-.015.854-.135 1.027-.615.131-.364.067-.688-.239-.945-.27-.227-.971-.245-1.29-.035-.574.377-.602.753-.11 1.478-.435.081-.891.001-1.315.164-.313.12-.587.297-.525.69.059.374.319.535.682.524.413-.012.824-.066 1.214-.201.476-.165.55-.579.19-.957-.042-.044-.068-.102-.101-.154m-3.81 2.441c.204-1.509.703-3.06 2.29-4.032.586-.359 1.23-.567 1.89-.613 1.413-.099 2.832-.112 4.236.152 1.87.35 3.154 1.885 3.401 3.829.07.556-.378.924-.91.743-1.382-.472-2.77-.285-4.145-.03-1.129.21-2.198.626-3.216 1.17-.599.321-1.261.443-1.927.509-1.01.1-1.628-.495-1.619-1.728" transform="translate(-3 -2)"/>
                <path fill="#FAE5C7" d="M8.03 12.14c.005.06-.007.127.016.18.26.595.005.952-.639.88-.169-.019-.334-.073-.501-.11-.09-.41.08-.777.2-1.148.113-.349.298-.476.586-.13.1.12.224.219.338.328" transform="translate(-3 -2)"/>
                <path fill="#FEFEFE" d="M8.48 11.292c-.203-.024-.343-.104-.337-.293.008-.233.138-.391.389-.377.195.012.334.133.321.336-.015.229-.21.288-.373.334" transform="translate(-3 -2)"/>
                <path fill="#050101" d="M14.349 22.234c.298.54.81.53 1.309.53.338 0 .55-.182.649-.554-.675.022-1.308.046-1.958.024m1.164 1.6c-1.302.004-2.133-.579-2.492-1.732-.125-.405-.06-.753.238-1.053.267-.268.536-.118.835-.037.793.216 1.611.2 2.415.085.897-.13 1.185.156.971 1.05-.28 1.175-.874 1.684-1.967 1.687" transform="translate(-3 -2)"/>
                <path fill="#FAE5C7" d="M21.916 23.345c-.48.069-1.027-.07-1.58-.109-.397-.028-.77-.418-.76-.733.014-.395.334-.646.823-.693.804-.076 1.6-.249 2.416-.194.429.028.814.138 1.103.477.28.329.213.751-.157.971-.55.327-1.16.29-1.845.281M7.889 21.248c.552.062 1.105.094 1.662.101.27.004.526.133.752.282.235.155.525.308.454.657-.068.337-.301.578-.635.648-.987.208-1.957.16-2.873-.306-.312-.16-.64-.351-.569-.785.075-.454.47-.514.828-.593.121-.027.253-.004.38-.004" transform="translate(-3 -2)"/>
                <path fill="#050101" d="M19.71 19.881c-.217.024-.414.11-.423.387-.009.261.167.372.396.362.247-.01.486-.092.475-.404-.01-.253-.194-.338-.448-.345m1.499.415c.001.813-.483 1.248-1.39 1.248-.9 0-1.579-.537-1.568-1.244.012-.859.664-1.329 1.845-1.33.684 0 1.11.508 1.113 1.326M10.172 20.282c.27-.024.465-.138.47-.433.003-.275-.176-.409-.427-.407-.264.002-.467.135-.469.428-.001.267.173.391.426.412m.114.956c-.805.003-1.468-.586-1.48-1.315-.012-.698.585-1.38 1.21-1.356 1.13.045 1.583.363 1.634 1.35.04.787-.536 1.318-1.364 1.321M13.76 11.57c-.005-.2-.136-.312-.328-.321-.207-.01-.387.09-.412.313-.023.207.118.327.318.338.216.012.36-.1.421-.33m-.284 1.287l-.45-.141c-.472-.143-.795-.567-.807-1.062-.014-.565.27-.971.794-1.135.952-.298 1.445-.057 1.708.81.118.393.024.72-.242 1.007-.137.148-.296.275-.445.412l-.558.11" transform="translate(-3 -2)"/>
                <path fill="#FAE5C7" d="M13.475 12.857l.558-.11c.28.169.585.064.877.068.428.006.858-.02 1.26.17.29.138.52.353.501.686-.018.342-.281.507-.598.588-.833.214-1.64.057-2.423-.212-.474-.163-.513-.57-.175-1.19" transform="translate(-3 -2)"/>
                <path fill="#050101" d="M11.422 14.134c-.707-.096-1.355-.17-1.957-.437-.312-.138-.561-.34-.442-.73.104-.34.46-.451.87-.276.488.21 1.01.258 1.523.352.33.06.556.244.513.623-.039.333-.289.422-.507.468M18.144 2.411c-.13.015-.248.098-.244.266.005.176.103.31.3.3.189-.01.291-.141.277-.32-.013-.16-.132-.246-.333-.246m.379 1.141c-.236-.03-.478-.031-.704-.093-.512-.141-.805-.598-.696-1.035.107-.426.54-.67 1.059-.595.855.123 1.247.685.981 1.407l-.64.316M14.634 2.708c-.01-.198-.139-.266-.284-.262-.164.006-.31.09-.318.278-.008.195.12.28.302.263.17-.016.284-.113.3-.28m-.952.805c-.492-.725-.464-1.1.11-1.478.319-.21 1.02-.192 1.29.035.306.257.37.581.24.945-.174.48-.576.6-1.028.615-.155.006-.311-.033-.467-.05l-.145-.067" transform="translate(-3 -2)"/>
                <path fill="#FAE5C7" d="M13.682 3.512l.145.066c.033.052.06.11.1.154.36.378.287.792-.19.957-.39.135-.8.19-1.212.202-.364.01-.624-.15-.683-.524-.062-.394.212-.57.525-.691.423-.163.88-.083 1.315-.164M18.523 3.552l.64-.316c.348.01.696.022 1.044.027.354.004.597.17.6.527.002.358-.241.53-.594.534-.3.003-.602 0-.903 0-.744 0-.794-.05-.787-.772" transform="translate(-3 -2)"/>
                <path fill="#050101" d="M16.077 4.399c-.106.005-.297.022-.487.019-.198-.004-.339-.112-.371-.308-.032-.192.06-.365.241-.42.541-.165 1.102-.14 1.657-.1.17.013.271.154.274.34.003.2-.085.332-.28.392-.311.096-.633.05-1.034.077" transform="translate(-3 -2)"/>
                <path fill="#FAE5C7" d="M14.349 22.234c.65.022 1.283-.002 1.958-.024-.1.372-.31.553-.65.553-.498 0-1.01.01-1.308-.529" transform="translate(-3 -2)"/>
                <path fill="#FEFEFE" d="M19.71 19.881c.254.007.439.092.448.345.011.312-.228.394-.475.404-.229.01-.405-.101-.396-.362.009-.277.206-.363.423-.387M10.172 20.282c-.253-.021-.427-.145-.426-.412.002-.293.205-.426.47-.428.25-.002.429.132.425.407-.004.295-.198.409-.469.433M13.76 11.57c-.062.23-.206.342-.422.33-.2-.011-.34-.131-.318-.338.025-.224.205-.323.412-.313.192.01.323.12.327.321M18.144 2.411c.2 0 .32.086.333.246.014.179-.088.31-.278.32-.196.01-.294-.124-.299-.3-.004-.168.113-.25.244-.266M14.634 2.708c-.016.166-.13.263-.3.28-.182.016-.31-.069-.302-.264.008-.188.154-.272.318-.278.145-.004.273.064.284.262" transform="translate(-3 -2)"/>
            </g>
        </g>
    </g>
</svg>
