<svg xmlns="http://www.w3.org/2000/svg" xmlns:xlink="http://www.w3.org/1999/xlink" width="24" height="24" viewBox="0 0 24 24">
    <defs>
        <path id="prefix__a" d="M8 0h8c4.418 0 8 3.582 8 8v8c0 4.418-3.582 8-8 8H8c-4.418 0-8-3.582-8-8V8c0-4.418 3.582-8 8-8z"/>
        <path id="prefix__c" d="M0 0.005L35.966 0.005 35.966 58.16 0 58.16z"/>
    </defs>
    <g fill="none" fill-rule="evenodd">
        <mask id="prefix__b" fill="#fff">
            <use xlink:href="#prefix__a"/>
        </mask>
        <use fill="#BDBDBD" xlink:href="#prefix__a"/>
        <g mask="url(#prefix__b)">
            <g>
                <path fill="#ADB2D9" d="M12.999 6.63c.08 0 .222.01.363-.003.334-.03.613-.242.669-.492.058-.262-.124-.642-.358-.787-.453-.28-1.447-.02-1.713.336-.252.337-.14.716.257.865.236.089.475.092.782.08m.68-2.47c-.014.604.362 1.038.908 1.049.602.012 1.143-.428 1.16-.94.02-.644-.558-1-1.036-1.043-.508-.047-1.02.448-1.032.935m9.347 1.986c.214 0 .428.008.641-.002.212-.011.422-.052.634-.06.427-.017.666-.235.744-.699.045-.273-.122-.458-.532-.595-.108-.035-.215-.057-.329-.053-.433.014-.861-.007-1.297.105-.391.1-.689.284-.927.585-.106.133-.147.306-.053.459.09.146.21.272.416.262.234-.011.468-.003.703-.002m-10.322 48.41c-.083-.075-.166-.077-.28-.08-.04-.032-.903.116-1.005.315-.333.648-.362 1.346-.354 2.054.002.213.085.497-.213.567-.266.063-.403-.154-.544-.357-.787-1.13-1.546-2.28-2.094-3.547-.636-1.468-1.527-2.812-2.076-4.322-.477-1.311-.92-2.634-1.385-3.95-.542-1.535-.916-3.107-1.122-4.714-.22-1.708-.37-3.424-.291-5.152.05-1.079.036-2.16.113-3.238.184-2.56.369-5.118.998-7.624.27-1.078.594-2.139.897-3.206.027-.096.148-.23.01-.297-.138-.067-.293.006-.367.143-.1.188-.186.385-.257.586-.237.672-.492 1.338-.676 2.028-.028.107-.056.207-.185.256-1.206.456-1.808 1.418-2.157 2.59-.047.156-.087.316-.158.462-.091.19-.224.356-.472.3-.238-.054-.364-.225-.38-.46-.03-.483.045-.946.232-1.402.74-1.807 1.917-3.31 3.29-4.66 1.149-1.13 2.01-2.437 2.563-3.933.386-1.04.63-2.128.893-3.207.511-2.106 1.179-4.149 2.275-6.04.48-.828.871-1.72 1.503-2.44.917-1.045 1.836-2.088 3.048-2.84C16.43 1.193 18.5.667 20.737.82c1.095.074 2.148.405 2.995 1.11 1.006.838 1.994 1.734 2.644 2.892.722 1.286 1.388 2.6 1.796 4.037.4 1.41.814 2.815 1.169 4.238.285 1.144.498 2.304.808 3.442.212.776.605 1.443 1.15 2.025.41.439.811.89 1.252 1.297.922.852 1.465 1.944 1.999 3.046.453.936.784 1.902.72 2.965-.008.124-.016.244-.069.358-.083.182-.233.29-.422.315-.174.022-.24-.142-.306-.26-.268-.477-.433-1.018-.802-1.435-.403-.457-.876-.83-1.507-.902-.19-.022-.223-.147-.244-.259-.114-.615-.398-1.176-.562-1.773-.139-.503-.333-.985-.497-1.478-.03-.092-.033-.263-.192-.214-.14.044-.181.19-.15.332.074.339.153.676.237 1.012.475 1.909.846 3.833 1.054 5.794.108 1.01.352 2.011.403 3.026.125 2.485.13 4.97-.204 7.446-.257 1.897-.514 3.796-.776 5.692-.276 1.998-.735 3.966-1.403 5.874-.516 1.476-.819 3.006-1.221 4.51-.282 1.052-.535 2.116-1.093 3.07-.09.153-.196.284-.357.367-.189.097-.293.094-.293-.172 0-.761-.13-1.499-.442-2.201-.13-.292-.267-.576-.504-.793-.126-.114-.12-.178.012-.279.74-.565 1.302-1.284 1.781-2.073.053-.086.106-.18.125-.276.03-.156-.05-.275-.186-.352-.153-.087-.224.03-.298.125-.502.643-.994 1.292-1.636 1.81-1.693 1.365-3.617 2.08-5.796 2.133-1.185.028-2.436.416-3.609.245-.17-.025-.363-.198-.535-.137-.307-.03-.52-.35-.822-.421-.2-.047-.45.051-.666.084-.072-.032-.129-.124-.204-.102-.437-.141-.945-.241-1.382-.382" transform="translate(-6 2)"/>
                <g transform="translate(-6 2) translate(0 .078)">
                    <mask id="prefix__d" fill="#fff">
                        <use xlink:href="#prefix__c"/>
                    </mask>
                    <path fill="#050101" d="M35.27 25.796c-.008.123-.016.243-.069.357-.083.183-.233.291-.422.315-.174.023-.24-.141-.306-.259-.268-.478-.433-1.018-.801-1.436-.404-.457-.877-.829-1.508-.902-.19-.021-.223-.146-.244-.258-.114-.616-.398-1.176-.562-1.774-.139-.502-.333-.984-.497-1.477-.03-.093-.033-.264-.192-.214-.14.044-.181.19-.15.332.074.338.153.675.237 1.011.475 1.91.846 3.834 1.054 5.794.108 1.01.352 2.012.403 3.026.125 2.485.13 4.97-.204 7.446-.257 1.898-.514 3.796-.776 5.693-.276 1.998-.735 3.965-1.403 5.874-.516 1.476-.819 3.006-1.221 4.51-.282 1.052-.535 2.115-1.093 3.07-.09.152-.196.284-.357.366-.189.097-.293.094-.293-.172 0-.76-.13-1.498-.442-2.2-.13-.293-.267-.577-.504-.793-.126-.115-.12-.179.012-.28.74-.564 1.302-1.284 1.781-2.072.053-.086.106-.18.125-.276.03-.157-.05-.275-.186-.353-.153-.087-.224.03-.298.126-.502.643-.994 1.292-1.636 1.81-1.693 1.365-3.617 2.08-5.796 2.132-1.185.029-3.293.154-7.105-.869-.083-.076-1.938-.486-3.06-1.9-.145-.183-.6-.587-.766-.728.127.753 1.952 2.424 2.27 2.592.178.093.26.228.158.426-.333.648-.362 1.347-.354 2.054.002.213.085.497-.213.568-.266.063-.403-.155-.544-.357-.787-1.13-1.546-2.28-2.094-3.547-.636-1.469-1.527-2.813-2.076-4.322-.477-1.312-.92-2.635-1.385-3.95-.542-1.536-.916-3.107-1.122-4.715-.22-1.708-.37-3.423-.291-5.151.05-1.08.036-2.16.113-3.239.185-2.56.369-5.117.998-7.623.27-1.079.594-2.14.897-3.207.027-.096.148-.229.01-.297-.138-.067-.293.007-.367.144-.1.187-.186.385-.257.586-.237.671-.492 1.337-.676 2.027-.028.108-.056.208-.185.257-1.206.456-1.808 1.417-2.157 2.59-.047.155-.087.316-.158.461-.091.19-.224.356-.472.3-.238-.054-.364-.225-.38-.46-.03-.483.045-.945.232-1.401.74-1.808 1.917-3.31 3.29-4.66 1.149-1.13 2.01-2.437 2.564-3.933.385-1.04.63-2.129.892-3.208.511-2.106 1.179-4.148 2.275-6.04.48-.828.871-1.72 1.503-2.44.917-1.044 1.836-2.087 3.048-2.84C16.43 1.117 18.499.59 20.737.744c1.095.074 2.148.405 2.995 1.11 1.006.837 1.994 1.733 2.644 2.892.722 1.285 1.388 2.599 1.796 4.036.4 1.41.814 2.815 1.169 4.239.285 1.144.498 2.304.808 3.441.212.777.605 1.443 1.15 2.025.41.44.811.89 1.252 1.297.922.852 1.465 1.944 1.999 3.046.453.937.784 1.903.72 2.966M14.608 54.853c.131.048.265.085.4.12-.135-.035-.269-.072-.4-.12m21.3-30.096c-.171-1.095-.627-2.085-1.144-3.045-.395-.734-.79-1.475-1.388-2.077-.51-.514-1.024-1.023-1.514-1.554-.385-.418-.814-.83-.957-1.399-.146-.583-.333-1.154-.472-1.738-.24-1.008-.505-2.008-.69-3.032-.199-1.11-.595-2.177-.895-3.266-.421-1.53-1.14-2.919-1.903-4.287-.582-1.044-1.491-1.82-2.326-2.655C23.723.808 22.595.39 21.399.136c-.966-.205-1.945-.142-2.92 0-1.448.212-2.838.627-4.062 1.424-1.311.854-2.423 1.972-3.374 3.204-.75.97-1.332 2.07-1.98 3.117-.183.294-.35.6-.5.911-.714 1.486-1.134 3.07-1.544 4.658-.389 1.506-.702 3.033-1.456 4.421-.347.638-.676 1.276-1.225 1.774-.316.287-.615.595-.896.916-.503.574-.984 1.166-1.479 1.747C1.11 23.31.585 24.493.13 25.705c-.219.581-.151 1.184.142 1.748.17.328.633.56.966.51.561-.081.885-.406 1.044-.933.095-.311.201-.62.321-.923.191-.485.53-.866.904-1.217.062-.058.143-.152.233-.08.068.056.013.153-.01.23-.095.31-.212.617-.28.934-.203.947-.313 1.909-.456 2.865-.222 1.479-.503 2.947-.523 4.448-.013 1.02-.032 2.039.01 3.058 0 .366.015.733-.002 1.099-.09 1.978.15 3.92.624 5.837.117.473.218.958.402 1.406.204.498.414.996.615 1.494.624 1.548 1.217 3.106 1.985 4.594.999 1.936 1.881 3.933 3.068 5.769.327.507.689.978 1.17 1.357.504.397 1.06.283 1.33-.302.051-.11.077-.231.106-.35.081-.34.056-.689.058-1.035.003-.35.064-.683.23-1 .24-.458.239-.469.745-.308 1.704.542 3.435.934 5.23 1.025 2.368.12 4.662-.117 6.765-1.33.155-.09.258-.062.38.035.134.106.214.248.268.401.261.731.47 1.472.455 2.261-.009.4.165.64.493.763.377.142.733.167 1.039-.166.373-.407.718-.825.922-1.353.16-.417.326-.83.477-1.252.265-.738.515-1.48.678-2.247.265-1.246.627-2.465 1.015-3.679.476-1.492.905-2.997 1.115-4.558.17-1.27.395-2.534.586-3.803.323-2.146.685-4.289.716-6.465.023-1.559.09-3.122-.085-4.674-.186-1.649-.442-3.29-.663-4.935-.013-.093-.089-.202.022-.282.12-.087.205.02.302.067.6.297.878.854 1.138 1.42.133.29.28.565.507.793.192.193.424.284.694.242.574-.088 1.004-.522 1.07-1.101.048-.436.041-.873-.027-1.31" mask="url(#prefix__d)"/>
                </g>
                <path fill="#FBE6C8" d="M23.026 6.146c-.235 0-.47-.01-.703.002-.207.01-.326-.116-.416-.262-.094-.153-.053-.326.052-.459.24-.301.537-.484.928-.585.436-.112.864-.09 1.297-.105.114-.004.221.018.329.053.41.137.577.322.532.595-.078.464-.317.682-.744.699-.212.008-.422.049-.634.06-.213.01-.427.002-.641.002" transform="translate(-6 2)"/>
                <path fill="#050101" d="M14.597 4.66c.264.001.462-.18.468-.406.004-.175-.237-.388-.445-.378-.26.011-.335.193-.345.415-.01.234.11.357.322.368m-.918-.5c.011-.486.524-.981 1.032-.934.478.044 1.055.4 1.035 1.042-.016.513-.557.953-1.16.94-.545-.01-.921-.444-.907-1.047M21.224 4.422c.204 0 .463-.226.43-.377-.043-.194-.175-.323-.385-.318-.238.005-.34.172-.348.38-.008.207.133.3.303.315m-.826-.12c-.055-.406.311-1.076.69-1.24.027-.011.056-.022.085-.028.391-.074 1.115.457 1.174.86.077.531-.327 1.033-.876 1.078-.172.014-.343.004-.514-.04-.336-.087-.538-.477-.559-.63" transform="translate(-6 2)"/>
                <path fill="#FBE6C8" d="M12.999 6.63c-.307.01-.546.008-.782-.081-.397-.15-.509-.528-.257-.865.266-.355 1.26-.617 1.713-.336.234.145.416.525.358.787-.056.25-.335.461-.669.492-.14.014-.284.003-.363.003" transform="translate(-6 2)"/>
                <path fill="#050101" d="M20.177 5.787c-.078.109-.184.192-.308.243-.639.263-1.273.545-1.952.517-.457.023-.867-.032-1.262-.186-.302-.117-.51-.327-.612-.637-.053-.164-.028-.261.184-.207 1.253.32 2.492.286 3.715-.151.077-.028.172-.113.234.017.064.131.097.272.001.404m.53-.838c-.108-.171-.314-.371-.61-.33-.17.025-.272.075-.406.12-1.09.367-2.195.413-3.299.097-.345-.099-.592-.015-.838.193-.242.204-.266.473-.2.754.134.575.473.995 1.028 1.2 1.438.531 2.789.23 4.064-.508.812-.47.362-1.388.26-1.526" transform="translate(-6 2)"/>
                <path fill="#F3DAA1" d="M17.917 6.547c-.457.023-.867-.032-1.262-.186-.302-.117-.51-.327-.612-.637-.053-.164-.028-.261.184-.207 1.253.32 2.492.286 3.715-.151.077-.028.172-.113.234.017.064.131.097.272.001.404-.078.109-.184.192-.308.243-.639.263-1.273.545-1.952.517" transform="translate(-6 2)"/>
                <path fill="#E7E7E6" d="M14.597 4.66c-.212-.012-.332-.135-.322-.37.01-.22.085-.403.345-.414.208-.01.449.203.445.378-.006.227-.204.407-.468.405M21.224 4.422c-.17-.016-.311-.108-.303-.315.009-.208.11-.375.348-.38.21-.005.342.124.385.318.033.15-.226.377-.43.377" transform="translate(-6 2)"/>
            </g>
        </g>
    </g>
</svg>
