<svg xmlns="http://www.w3.org/2000/svg" xmlns:xlink="http://www.w3.org/1999/xlink" width="24" height="24" viewBox="0 0 24 24">
    <defs>
        <path id="prefix__a" d="M8 0h8c4.418 0 8 3.582 8 8v8c0 4.418-3.582 8-8 8H8c-4.418 0-8-3.582-8-8V8c0-4.418 3.582-8 8-8z"/>
    </defs>
    <g fill="none" fill-rule="evenodd">
        <mask id="prefix__b" fill="#fff">
            <use xlink:href="#prefix__a"/>
        </mask>
        <use fill="#BDBDBD" xlink:href="#prefix__a"/>
        <g mask="url(#prefix__b)">
            <g>
                <path fill="#080203" d="M1.257 29.922c.009.264.184.192.324.107.366-.223.693-.496.996-.8.24-.242.459-.511.75-.696.351-.223.59-.11.563.292-.036.56-.13 1.118-.236 1.671-.016.084-.051.169-.112.228-.638.633-1.374 1.125-2.21 1.445-.292.112-.314-.088-.206-.31.362-.343.816-.558 1.24-.798.733-.414 1-1.019.95-1.898-.573.629-1.178 1.138-1.863 1.547-.177.106-.213.3-.214.495 0 .26-.049.507-.183.734" transform="translate(-2 -8)"/>
                <path fill="#070000" d="M.938 32.425c.023-.126-.035-.233-.03-.351.003-.093.034-.164.113-.214.074-.054.139-.047.192.031-.017.03-.04.057-.05.089-.011.03-.021.068-.01.094.009.018.06.036.08.026.261-.125.534-.234.777-.39.43-.276.836-.587 1.26-.872.204-.137.285-.326.306-.558.037-.44.098-.875.187-1.308.03-.144.085-.342-.054-.428-.141-.087-.289.046-.399.15-.223.212-.445.426-.654.651-.387.419-.855.726-1.342 1.01-.106.062-.197.008-.198-.13" transform="translate(-2 -8)"/>
                <path fill="#070000" d="M1.204 29.052c-.002.16.107.127.205.11l.029.041c1.332-1.027 2.633-2.05 2.662-3.98.032-2.086.413-4.135.826-6.176.67-3.308 1.296-6.625 1.94-9.938.498-2.576.883-5.173 1.434-7.739.037-.169.088-.33.146-.491.252-.702.678-.894 1.355-.603.571.244 1.073.594 1.533 1.013 2.724 2.481 4.596 5.53 6.007 8.9 1.063 2.539 2.053 5.1 2.717 7.777.102.413.142.85.284 1.243.236.651-.298 1.095-.356 1.658-.007.065-.076.12-.153.103-.131-.03-.2-.133-.224-.255-.063-.318-.128-.637-.186-.956-.503-2.76-1.532-5.343-2.545-7.947-1.015-2.609-2.383-4.997-3.905-7.316-.738-1.125-1.678-2.068-2.763-2.866-.184-.135-.368-.236-.604-.25-.337-.019-.495.12-.546.458-.418 2.72-.89 5.43-1.42 8.13-.688 3.505-1.397 7.005-2.114 10.504-.261 1.27-.29 2.576-.226 3.876.022.2-.043.387-.09.576-.194 1.575-.375 3.15-.643 4.716-.352 2.058-.843 4.083-1.303 6.115-.245 1.084-.473 2.171-.734 3.25-.163.675.097 1.209.614 1.632.944.774 1.98 1.394 3.096 1.894 1.843.826 3.768 1.357 5.762 1.59 1.663.193 3.34.248 5.013.043.428-.052.688-.281.81-.677.787-2.532 1.491-5.084 1.82-7.724.015-.124-.025-.237-.036-.355.182-1.3.277-2.61.452-3.91.602-.136 1.004.134.98.705-.048 1.091-.243 2.168-.432 3.24-.258 1.46-.414 2.935-.692 4.39-.302 1.576-.57 3.162-1.336 4.6-.393.74-.956 1.37-1.33 2.128-.6 1.212-.912 2.495-1.137 3.81-.089.522-.207 1.038-.308 1.556-.083.427-.326.71-.73.847-.418.14-.756.005-1.069-.298-.486-.47-.62-1.08-.766-1.699-.399-1.678-.229-3.363-.082-5.048.046-.526.011-.616-.516-.66-1.124-.096-2.24-.223-3.337-.49-1.082-.265-2.156-.582-3.133-1.103-1.005-.535-1.677-.028-2.223.714-.698.947-.999 2.051-1.086 3.21-.027.359-.105.707-.137 1.064-.034.378-.261.651-.639.797-.384.147-.672-.017-.93-.255-.673-.618-.885-1.45-.965-2.308-.204-2.18.212-4.274.855-6.348.818-2.639 1.494-5.317 2.069-8.02.029-.135.093-.28-.031-.38-.157-.127-.288.001-.407.094-.445.344-1.024.466-1.438.862" transform="translate(-2 -8)"/>
                <path fill="#241A17" d="M5.206 24.362c-.02-.028-.054-.053-.058-.083-.054-.425-.075-.858.007-1.276.053-.274.076-.542.06-.812-.04-.742.096-1.463.242-2.18.242-1.182.545-2.353.757-3.541.144-.804.3-1.605.46-2.405.138-.7.3-1.396.434-2.098.162-.852.373-1.693.488-2.554.047-.354.139-.701.205-1.052.1-.534.192-1.07.297-1.603.18-.917.32-1.841.484-2.761.131-.734.302-1.467.339-2.216.007-.144.064-.265.134-.383.045-.077.113-.135.202-.144.344-.033.68-.045.97.21.243.213.492.423.747.62.246.19.47.395.686.613.81.816 1.49 1.73 2.075 2.718.4.674.82 1.338 1.223 2.012.445.748.864 1.508 1.207 2.314.356.832.635 1.695 1.005 2.52.3.67.584 1.346.848 2.031.424 1.1.8 2.215 1.071 3.363.21.894.404 1.792.6 2.69.026.115.017.238.028.357.01.095.105.216.141.185.059-.049.061-.118.057-.186-.018-.312.144-.558.306-.798.084-.127.085-.236.057-.382-.156-.82-.342-1.634-.569-2.436-.283-1.001-.576-2-.953-2.972-.229-.588-.45-1.18-.665-1.774-.216-.594-.457-1.178-.707-1.756-.38-.877-.736-1.768-1.193-2.61-.537-.99-1.063-1.99-1.716-2.91-.433-.611-.907-1.192-1.38-1.773-.522-.64-1.13-1.191-1.7-1.78-.43-.445-.936-.793-1.494-1.064C9.794.394 9.682.35 9.57.311 9.41.256 9.259.18 9.08.284c-.197.115-.379.241-.46.462-.181.496-.314 1.01-.413 1.528-.125.651-.222 1.307-.337 1.96-.089.502-.188 1.001-.282 1.502-.168.902-.36 1.8-.497 2.707-.176 1.179-.437 2.34-.646 3.51-.084.47-.208.93-.297 1.398-.147.768-.277 1.539-.421 2.307-.144.769-.29 1.537-.447 2.303-.178.866-.387 1.726-.55 2.595-.107.567-.124 1.152-.244 1.715-.081.385-.03.786-.172 1.159-.006.015-.01.034-.008.05.04.499-.144.982-.11 1.476.032.45-.047.89-.129 1.32-.086.452-.29.869-.599 1.231-.476.56-1.055 1.015-1.564 1.542-.164.17-.373.336-.635.394-.025-.156.141-.17.139-.282.5-.465.992-.94 1.504-1.393.611-.54.922-1.216.985-2.02.051-.649.114-1.297.17-1.945.14-1.605.411-3.188.738-4.764.284-1.374.536-2.754.805-4.13.255-1.31.518-2.617.769-3.928.27-1.41.531-2.823.792-4.236.31-1.682.613-3.366.926-5.047.05-.269.127-.533.206-.794.045-.146.106-.29.182-.422.248-.432.614-.578 1.09-.42.607.201 1.149.52 1.627.95 1.813 1.625 3.33 3.485 4.525 5.61 1.083 1.93 1.957 3.952 2.743 6.016.657 1.727 1.268 3.468 1.697 5.268.135.564.26 1.13.385 1.68.103.067.181.015.26 0 .553-.1.967.107 1.227.603.044.085.033.211.164.245.124-.095.169-.244.245-.37.1-.166.223-.304.388-.402.569-.336 1.253-.035 1.4.61.112.489.125.984.124 1.481 0 .222-.019.445-.032.667-.021.357-.022.362.32.39.226.018.435.082.637.18.379.186.586.505.551.91-.122 1.465-.148 2.943-.497 4.382-.133.549-.313 1.083-.559 1.595-.142.294-.3.578-.504.832-.72.89-1.643 1.31-2.795 1.186-.068-.008-.136-.01-.204-.013-.062-.002-.087.047-.106.093-.012.03-.012.067-.013.102-.036 1.167-.262 2.31-.444 3.459-.17 1.065-.325 2.131-.493 3.196-.229 1.453-.483 2.902-.92 4.312-.24.773-.572 1.503-1.063 2.15-.949 1.254-1.506 2.676-1.816 4.204-.174.854-.344 1.71-.504 2.567-.09.487-.363.815-.832.943-.466.126-.876-.007-1.21-.369-.31-.335-.517-.729-.622-1.165-.27-1.134-.476-2.273-.372-3.454.067-.766.081-1.538.177-2.303.005-.051.012-.102.01-.153-.002-.142-.067-.227-.208-.246-.237-.032-.476-.06-.715-.077-1.98-.142-3.88-.612-5.702-1.395-.251-.109-.504-.215-.754-.326-.272-.121-.528-.09-.784.055-.427.244-.757.586-1.01 1.002-.44.725-.732 1.504-.837 2.35-.064.51-.13 1.018-.196 1.527-.013.102-.022.205-.047.304-.167.652-.848.963-1.453.668-.19-.091-.339-.23-.475-.386-.298-.342-.482-.744-.606-1.176-.266-.933-.32-1.884-.261-2.848.09-1.478.402-2.908.83-4.323.734-2.422 1.378-4.87 1.939-7.338.083-.367.168-.733.248-1.1.01-.045-.01-.096-.02-.173-.43.282-.858.529-1.305.74-.153.072-.294.177-.472.184-.048-.017-.114-.02-.138-.053-.058-.08.023-.12.078-.147.29-.15.583-.29.87-.44.228-.117.472-.206.655-.397.105-.11.243-.115.383-.097.096.013.156.068.167.164.016.136.002.27-.024.406-.23 1.189-.563 2.351-.834 3.529-.265 1.146-.613 2.269-.92 3.403-.298 1.102-.676 2.181-.91 3.302-.087.417-.129.839-.196 1.256-.14.871-.065 1.74-.08 2.61-.011.658.186 1.277.459 1.872.133.29.38.482.603.69.146.138.313.266.551.19.27-.085.509-.202.629-.477.04-.094.085-.194.091-.293.02-.307.116-.61.116-.909-.002-.555.136-1.085.262-1.61.119-.49.316-.969.606-1.404.18-.27.351-.537.58-.775.258-.267.567-.433.892-.589.148-.072.29-.083.444-.02.285.113.581.203.859.332 1.027.476 2.096.818 3.2 1.063.613.137 1.23.24 1.857.319.408.05.812.085 1.221.085.163 0 .3.062.433.144.195.12.3.307.229.522-.1.303-.036.618-.099.912-.147.697-.058 1.397-.094 2.095-.041.793.116 1.558.266 2.328.083.425.21.822.45 1.18.075.113.165.219.26.316.255.267.538.382.922.25.384-.131.594-.375.671-.76.126-.633.255-1.265.379-1.9.036-.183.044-.372.084-.554.084-.382.17-.765.276-1.14.294-1.027.762-1.976 1.322-2.88.134-.217.305-.41.451-.62.474-.682.772-1.447.978-2.243.217-.84.408-1.687.587-2.536.104-.498.147-1.009.246-1.509.118-.6.156-1.21.269-1.813.093-.499.156-1.007.238-1.51.082-.504.137-1.012.24-1.51.042-.204.07-.402.07-.607 0-.188-.002-.374.068-.557.036-.092.031-.201.034-.303.01-.409.001-.419-.367-.564-.159-.062-.316-.13-.474-.194-.394.01-1.314-.568-1.442-.905-.078-.203-.006-.37.13-.515.167-.176.37-.243.608-.16.261.093.489.247.707.414.274.21.57.38.895.496.972.346 1.835.062 2.424-.791.516-.746.82-1.572.969-2.464.163-.98.268-1.969.492-2.937.012-.05.017-.102.018-.153.007-.27.073-.577-.275-.694-.366-.122-.568.094-.77.448.345-.163.636-.425.914-.057.2.264.047.673-.354.955-.287.2-.604.352-.962.242-.267-.081-.305.04-.361.26-.196.767-.604 1.066-1.416 1.035-.252-.01-.394.042-.526.282-.204.368-.508.374-.787.06-.23-.26-.33-.566-.214-.904.107-.316.387-.413.68-.477.258-.056.511-.002.766.03.175.02.364.012.442-.176.087-.209-.085-.318-.23-.403-.615-.36-1.254-.443-1.907-.106-.437.226-.691.749-.574 1.321.174.847.49 1.64 1.114 2.274.332.337.402.636.167.833-.318.267-.618.13-.865-.12-.866-.871-1.299-1.953-1.494-3.146.019-.6.185-1.145.574-1.612.14-.152.288-.309.485-.371.39-.123.447-.364.409-.749-.29-2.927-.851-5.796-1.891-8.551-1.276-3.382-2.636-6.726-4.715-9.724-.776-1.12-1.625-2.159-2.693-3.01-.16-.128-.317-.264-.498-.362-.388-.209-.58-.119-.648.305-.4 2.45-.825 4.896-1.292 7.334-.66 3.447-1.313 6.896-2.094 10.318-.31 1.35-.268 2.72-.422 4.076-.017.153-.003.31-.064.456-.04.083-.102.135-.196.147" transform="translate(-2 -8)"/>
                <path fill="#8E8C89" d="M1.213 31.89l-.192-.03c.07-.301.071-.609.079-.916.004-.127.037-.232.159-.295.797-.415 1.472-.982 2.07-1.646.02-.022.058-.027.093-.041.112.068.05.176.051.266.002.102-.01.204-.023.306-.026.202-.072.403-.084.606-.014.242-.124.417-.308.562-.442.35-.909.662-1.398.941-.149.084-.298.165-.447.248" transform="translate(-2 -8)"/>
                <path fill="#8E8D89" d="M18.374 26.11c.053.25.087.507.16.75.21.693.55 1.327.936 1.934.139.218.332.39.55.533.122.08.255.098.392.061.223-.059.323-.363.18-.54-.032-.04-.072-.075-.114-.104-.339-.229-.548-.561-.717-.92-.169-.354-.328-.714-.477-1.078-.117-.289-.143-.593-.116-.906.042-.49.355-.976 1.005-1.164.577-.166 1.117-.067 1.638.199.106.053.209.12.298.196.122.105.197.24.152.41-.046.17-.182.24-.335.283-.152.043-.304.02-.456-.016-.29-.066-.576-.063-.859.043-.372.14-.497.39-.374.77.047.148.13.28.236.393.207.222.497.166.614-.122.024-.059.026-.133.02-.198-.012-.118.067-.146.15-.161.066-.012.136-.004.204 0 .136.01.272.03.408.032.648.008 1.062-.367 1.125-1.015.007-.068.003-.137.003-.205v-.191c.138-.072.202.043.29.073.504.171 1.052-.004 1.362-.436.062-.085.105-.175.119-.28.02-.154-.035-.284-.153-.353-.134-.079-.316-.07-.43.033-.075.069-.13.16-.204.23-.048.045-.112.076-.173.103-.026.011-.07.003-.096-.013-.022-.013-.046-.055-.04-.078.045-.202.126-.391.254-.555.231-.297.72-.347 1.016-.11.071.057.114.133.115.221.002.171.012.345-.016.512-.197 1.197-.387 2.396-.61 3.588-.168.89-.579 1.676-1.134 2.389-.266.341-.62.542-1.04.605-.738.113-1.432-.009-2.037-.481-.243-.19-.489-.377-.768-.51-.262-.124-.468-.075-.64.133-.14.169-.141.3.023.447.177.16.365.31.558.451.22.161.432.339.71.4.008.135.032.271.025.405-.063 1.156-.165 2.308-.405 3.444-.01.048-.004.101-.005.152.031.045.035.092.013.142-.023.103-.04.208-.09.304-.31 2.598-1.025 5.1-1.79 7.59-.127.413-.4.655-.851.698-4.14.389-8.092-.234-11.81-2.151-.78-.402-1.482-.916-2.147-1.478-.51-.43-.677-.964-.522-1.65.668-2.95 1.404-5.888 1.957-8.863.307-1.652.545-3.32.667-4.999.125-.198.238-.06.322.03.178.19.406.31.6.475.132.16.068.403.251.569.2-.065.159-.261.211-.405.05-.138-.018-.375.262-.334.12.18.264.294.502.242.145-.032.302-.058.425.075-.014.883.123 1.728.52 2.533.32.652.798.976 1.524 1.01 1.434.066 2.862.192 4.298.01.667-.084 1.204-.334 1.624-.86.548-.686 1.068-1.383 1.255-2.266.015-.068.062-.121.118-.164.445-.01.9-.111 1.317.138" transform="translate(-2 -8)"/>
                <path fill="#231917" d="M19.703 35.545c-.01-.03-.005-.057.015-.08.095.071.119.18.081.276-.131.34-.115.705-.174 1.055-.14.822-.284 1.641-.473 2.453-.29 1.245-.645 2.472-1.023 3.693-.061.195-.103.396-.167.59-.154.463-.453.706-.963.784-.581.09-1.157.078-1.735.085-.549.007-1.097.003-1.644.001-.222 0-.446.02-.66-.072-.06-.026-.133-.025-.201-.028-1.857-.078-3.64-.517-5.373-1.153-1.138-.418-2.253-.903-3.254-1.606-.46-.322-.926-.638-1.325-1.04-.424-.429-.549-.94-.423-1.508.206-.93.452-1.852.649-2.785.185-.883.392-1.76.604-2.637.197-.81.378-1.624.536-2.442.133-.683.22-1.375.334-2.063.092-.553.235-1.1.277-1.657.031-.425.132-.839.139-1.269.006-.37.115-.738.11-1.116 0-.053.074-.106.112-.16.072.007.111.036.084.115.035.585-.071 1.161-.142 1.737-.125 1.035-.282 2.065-.464 3.092-.224 1.263-.486 2.517-.768 3.768-.406 1.8-.801 3.602-1.228 5.398-.155.65.044 1.125.532 1.542 1 .853 2.12 1.499 3.319 2.023 1.608.703 3.283 1.17 5.016 1.425 1.563.23 3.136.265 4.713.206.273-.01.544-.057.817-.08.367-.03.604-.217.71-.567.127-.426.248-.853.374-1.28.342-1.146.675-2.295.925-3.466.182-.853.333-1.712.461-2.574.023-.154.052-.302.13-.438.048-.066.034-.155.08-.222" transform="translate(-2 -8)"/>
                <path fill="#CFC0AB" d="M5.229 24.98l-.083-.113.06-.505.108-.109c.086-.238.239-.425.49-.47.82-.146 1.63-.176 2.358.33.329.229.529.526.469.952-.06.42-.372.533-.722.603-.084.029-.17.03-.256.023-.22.01-.423.132-.654.102-.178-.024-.207-.042-.235-.258-.006-.05-.01-.102-.014-.153-.346-.291-.473.13-.703.218-.397-.043-.61-.327-.818-.62" transform="translate(-2 -8)"/>
                <path fill="#8E8D89" d="M7.79 25.59c.087-.113.214-.084.33-.095.196-.017.326-.142.367-.313.064-.27.07-.535-.165-.76-.361-.347-.792-.527-1.282-.572-.22-.021-.445.002-.666-.011-.42-.026-.768.117-1.06.414l.12-2.564c.032-.704.17-1.393.338-2.072.355-1.428.593-2.879.885-4.32.22-1.088.457-2.173.67-3.263.268-1.358.525-2.718.774-4.08.27-1.479.537-2.959.786-4.442.09-.539.233-1.07.242-1.622.002-.083.022-.17.053-.248.046-.119.136-.188.271-.202.256-.025.469.065.664.22.617.49 1.21 1.006 1.745 1.588.639.696 1.192 1.455 1.672 2.27.365.618.748 1.227 1.126 1.838.668 1.08 1.224 2.212 1.684 3.396.427 1.1.9 2.18 1.338 3.276.728 1.813 1.26 3.685 1.631 5.603.232 1.193.419 2.39.522 3.602.017.204.056.407.07.611.01.183-.033.26-.22.288-.327.048-.549.254-.782.452-.53-.156-1.059-.268-1.61-.093-.539.172-.702.403-.646.977.013.122.038.24-.086.322-.5.24-1.039.351-1.577.416-2.268.27-4.523.227-6.739-.407-.161-.046-.338-.063-.455-.209M22.89 24.71c-.333-.274-.573-.462-.862-.577-.273-.108-.552-.171-.84-.213-.297-.043-.314-.108-.357-.346-.133-.741-.194-1.49-.271-2.238-.033-.315.038-.614.253-.862.121-.141.277-.142.394-.002.16.19.227.415.246.66.037.495.076.99.12 1.483.014.153.045.304.073.454.03.158.144.228.29.248.31.043.555-.127.627-.47.06-.283.085-.573.123-.861.04-.305.072-.612.12-.915.022-.134.064-.267.114-.393.051-.13.213-.217.33-.199.122.02.246.142.262.278.013.102.011.205.01.307-.008.6-.026 1.198-.024 1.796 0 .2-.055.358-.174.517-.269.362-.467.756-.433 1.332" transform="translate(-2 -8)"/>
                <path fill="#CEC0AB" d="M16.632 25.687l-.023-.046c-.123-.208-.25-.412-.133-.67.127-.283.332-.487.623-.573.428-.127.865-.205 1.312-.076.114.033.237.036.352.065.095.024.123.11.14.196-.36.446-.498.968-.529 1.527-.284.002-.568 0-.851.006-.171.002-.331-.035-.484-.108-.182-.048-.316-.157-.407-.32" transform="translate(-2 -8)"/>
                <path fill="#251B18" d="M16.632 25.687c.193.035.314.16.407.321.022.406-.1.772-.292 1.123-.331.603-.752 1.138-1.211 1.646-.35.387-.808.555-1.314.616-1.02.122-2.044.132-3.068.087-.663-.03-1.324-.118-1.987-.167-.28-.02-.491-.144-.648-.36-.642-.883-.97-1.87-.94-2.967.003-.099.049-.197.075-.295.045-.034.09-.068.136-.1.241-.005.472.045.703.111.822.238 1.66.364 2.514.429.664.05 1.327.082 1.992.059 1.108-.04 2.216-.087 3.284-.427.113-.036.233-.051.35-.076" transform="translate(-2 -8)"/>
                <path fill="#2B2321" d="M6.047 25.6c.05-.105.091-.214.152-.312.072-.115.167-.214.322-.187.152.027.223.13.23.28-.157.207-.081.462-.145.689-.032.112-.017.249-.17.279-.137.027-.27-.081-.343-.246-.072-.165-.027-.336-.046-.503" transform="translate(-2 -8)"/>
                <path fill="#241A18" d="M7.219 21.79c.374.032.734.13 1.082.271.491.198.945.466 1.398.738.194.116.295.275.274.505-.017.189-.132.32-.32.338-.135.012-.277.019-.408-.01-.824-.172-1.6-.462-2.26-1.006-.079-.064-.156-.134-.217-.213-.088-.112-.129-.24-.062-.381.072-.15.183-.243.358-.243h.155zM15.34 23.885c-.093-.013-.25-.013-.394-.058-.272-.085-.352-.336-.181-.565.09-.12.201-.231.318-.327.64-.524 1.389-.775 2.201-.856.187-.019.377-.028.493.176.12.208-.005.363-.12.506-.577.721-1.344 1.067-2.318 1.124" transform="translate(-2 -8)"/>
                <path fill="#FDFDFD" d="M12.825 27.446c-.77 0-1.541.028-2.31-.009-.63-.03-1.258-.127-1.884-.216-.292-.041-.438-.24-.45-.538-.008-.19.062-.27.285-.228 1.858.354 3.732.477 5.618.362.631-.038 1.261-.112 1.857-.353.03-.014.063-.026.096-.034.157-.038.275.075.238.227-.108.44-.323.64-.784.679-.511.044-1.024.072-1.537.09-.376.015-.753.004-1.129.004v.016zM11.999 28.819c-.822-.026-1.642-.07-2.46-.14-.417-.035-.71-.218-.904-.577-.024-.044-.035-.096-.048-.146-.023-.081.054-.168.146-.156.186.025.375.044.558.087.417.097.843.137 1.269.171 1.196.096 2.393.099 3.59.002.324-.025.647-.062.97-.09.03-.003.086.017.088.03.004.047.006.112-.021.14-.48.492-1.075.721-1.752.724-.479.002-.958-.029-1.436-.045" transform="translate(-2 -8)"/>
            </g>
        </g>
    </g>
</svg>
