<svg xmlns="http://www.w3.org/2000/svg" width="24" height="24" viewBox="0 0 24 24">
    <path fill="#FFF" fill-rule="evenodd" d="M12.14 10.587c.8 0 1.556.13 2.274.39.714.26 1.333.618 1.853 1.074.521.456.935 1.004 1.243 1.645.306.642.46 1.353.46 2.134 0 .781-.154 1.492-.46 2.133-.308.642-.722 1.19-1.243 1.646-.52.456-1.139.814-1.853 1.074-.718.26-1.474.391-2.275.391-.818 0-1.578-.13-2.286-.39-.706-.261-1.32-.619-1.84-1.075-.52-.456-.934-1.004-1.241-1.646-.308-.64-.46-1.352-.46-2.133 0-.781.152-1.492.46-2.134.307-.641.72-1.19 1.241-1.645.52-.456 1.134-.814 1.84-1.074.708-.26 1.468-.39 2.286-.39zm0 2.23c-.854 0-1.58.278-2.176.832-.595.553-.892 1.28-.892 2.181s.297 1.63.892 2.182c.597.553 1.322.83 2.175.83.856 0 1.582-.277 2.176-.83.595-.553.892-1.28.892-2.182 0-.901-.297-1.628-.892-2.181-.594-.554-1.32-.831-2.176-.831zM19 7.436v2.23H5v-2.23h14zM12.14 3c.484 0 .892.168 1.228.502.332.335.502.745.502 1.227 0 .484-.17.893-.502 1.228-.336.335-.744.502-1.229.502-.481 0-.89-.167-1.226-.502-.334-.335-.502-.744-.502-1.228 0-.482.168-.892.502-1.227.335-.334.745-.502 1.226-.502z"/>
</svg>
